<svg xmlns="http://www.w3.org/2000/svg" xmlns:xlink="http://www.w3.org/1999/xlink" width="122.496" height="41.304" viewBox="0 -1391 6768 2282" xmlns:v="https://vecta.io/nano"><defs><path id="A" d="M202 508q-23 0-33 12-10 12-11 27 0 10 6 30 6 20 21 47 15 27 45 51 30 24 71 35l32 5h12q33 0 39-1 63-11 105-53 42-42 60-93 18-51 17-111 0-95-47-217-47-122-117-187-81-75-179-75-100 0-150 78-31 46-31 92v11q0 117 87 211 87 94 193 95 61 0 92-31 31-31 41-67l3 11q20 83 20 137 0 88-41 124-41 36-93 37-78 0-121-64 41-6 41-40 0-25-18-44-18-19-44-20zm228-202q0 66-29 94-29 28-68 28-63 0-111-46-25-28-39-59-14-31-33-102-18-72-18-105 0-95 100-95 12 0 18 1 77 13 124 90 15 25 35 84 20 59 21 110z"/><path id="B" d="M118-162q2 0 6-2 4-2 11-3 7-1 12-1 13 0 24 13 11 13 16 29 10 27 34 153 24 126 46 240 22 114 22 115v3h-47q-47 0-50 2-4 3-4 10l7 28q2 5 8 5 6 0 47 1 48 0 48 1 0 2 9 50 9 48 12 58 37 165 146 165 37-2 61-22 24-20 24-53 0-36-21-52-21-16-42-17-44 0-44 42 0 19 11 33 11 14 24 21l9 5q-16 6-30 6-12 0-23-10-11-10-15-28-7-29-16-78-9-49-16-83-7-34-7-36 0-2 55-2 45 0 52-1 7-1 11-6 1-4-2-17-3-13-5-16-2-5-9-5-7 0-54-1h-56l-23-122Q301 15 282-47q-27-85-70-126-37-32-73-32-32 0-58 19-26 19-26 54 0 37 21 54 21 17 42 17 44 0 44-42 0-19-11-33-11-14-24-21l-9-5z"/><path id="C" d="M311 43q-15-13-44-28-29-15-61-15-63 0-101 45-38 45-39 115 0 105 77 193 77 88 171 89 47 0 87-48l3 4q2 3 5 6 3 3 9 8 6 5 13 7 7 2 16 3 14 0 23-9 9-9 10-19 0-15-57-242-57-227-60-232-18-54-77-89-59-35-135-36-141 0-141 68 0 26 18 46 18 20 46 20 15 0 28-9 13-9 14-31 0-10-2-19-2-9-7-14-5-5-8-10-3-5-7-8l-2-2h1q10-3 60-3 38 0 60 12 23 11 43 33 20 22 28 47 6 19 16 62 13 48 13 56zm73 285l-4 11q-3 11-5 15-2 4-6 14-4 10-10 14-6 4-13 11-7 7-18 9-11 2-22 3-44 0-85-53-30-39-50-119-20-80-20-116 0-79 62-79 56 0 110 70l8 10 53 210z"/><path id="D" d="M56 347q0 13 14 20h637q15-8 15-20 0-11-14-19l-318-1H72q-16 5-16 20zm0-194q0 15 16 20h636q14-10 14-20 0-13-15-20H70q-14 7-14 20z"/><path id="E" d="M52 289q7 42 54 97 47 55 116 56 35 0 64-18 29-18 43-45 42 63 101 63 37 0 64-22 27-22 28-59 0-29-14-47-14-18-27-22-13-4-23-4-19 0-31 11-12 11-12 29 0 46 50 63-11 13-40 13-13 0-19-2-38-16-56-66-60-221-60-258 0-28 16-40 16-12 35-12 37 0 73 33 36 33 49 81 3 10 6 11 3 1 16 2h4q15 0 15-8 0-1-2-11-16-57-62-101-46-44-107-44-70 0-106 63-41-62-94-62h-6q-49 0-70 26-21 26-22 55 0 32 19 52 19 20 45 20 43 0 43-42 0-20-12-35-12-15-23-20-11-5-13-5l-3-1q0-1 6-4 6-3 16-7 10-4 19-3 36 0 62 45 9 16 23 68 14 52 28 108 14 56 16 66 5 27 5 39 0 28-15 40-15 12-34 12-40 0-75-32-35-32-49-82-2-9-5-10-3-1-16-2H58q-6 6-6 11z"/><path id="F" d="M78 250Q78 274 95 292T138 310Q162 310 180 294T199 251Q199 226 182 208T139 190T96 207T78 250Z"/></defs><g transform="scale(1 -1)"><g transform="translate(220 676)"><use xlink:href="#A"/><use xlink:href="#B" x="566"/></g><g transform="translate(256.5 -686)"><use xlink:href="#A"/><use xlink:href="#C" x="566"/></g><path d="M120 220h1316v60H120z"/><use xlink:href="#D" x="1833.8"/><g transform="translate(2889.6)"><g transform="translate(231 676)"><use xlink:href="#A"/><use xlink:href="#B" x="566"/></g><g transform="translate(220 -686)"><use xlink:href="#A"/><use xlink:href="#E" x="566"/></g><path d="M120 220h1338v60H120z"/></g><use xlink:href="#F" x="4689.8"/><g transform="translate(5190)"><g transform="translate(220 676)"><use xlink:href="#A"/><use xlink:href="#E" x="566"/></g><g transform="translate(267.5 -686)"><use xlink:href="#A"/><use xlink:href="#C" x="566"/></g><path d="M120 220h1338v60H120z"/></g></g></svg>
