<svg xmlns="http://www.w3.org/2000/svg" xmlns:xlink="http://www.w3.org/1999/xlink" width="196.264" height="56.608" viewBox="0 -1881.7 10843.7 3127.6" xmlns:v="https://vecta.io/nano"><defs><path id="A" d="M347 338q-10 0-53 11-43 11-63 11-20 0-34-4-14-4-23-10-9-6-12-11-3-5-7-11l-2-4q-3-3-15-3-21 0-21 8 0 5 3 14 13 39 43 67 30 28 66 34 12 2 17 2 25 0 45-17 20-17 38-33 18-16 38-17 22 0 44 33 22 33 23 33 1 1 15 1h13q6-6 6-8 0-4-5-14-5-10-14-21-9-11-17-22-8-11-14-19l-7-9q-43-51-136-135-93-84-115-108l-12-12 15-1q22 0 64-11 42-11 63-11 38 0 70 19 32 19 42 50 4 9 7 11 3 2 15 2 19 0 19-10 0-5-1-9-17-62-66-103-49-41-98-42-26 0-46 17-20 17-39 34-19 17-38 17-44 0-79-60-6-8-17-8h-5-13q-6 6-6 9 0 15 58 86 39 45 132 130 93 85 115 108 12 16 7 16z"/><path id="B" d="M94 250Q94 319 104 381T127 488T164 576T202 643T244 695T277 729T302 750H315H319Q333 750 333 741Q333 738 316 720T275 667T226 581T184 443T167 250T184 58T225 -81T274 -167T316 -220T333 -241Q333 -250 318 -250H315H302L274 -226Q180 -141 137 -14T94 250Z"/><path id="C" d="M117 59q0-33 25-33 37 0 63 105 6 20 10 21 2 1 10 1h4q9 0 12 0 3 0 5-2 2-2 2-7-1-6-3-16-2-10-11-38-9-28-20-47-11-19-31-37-20-18-46-17-36 0-67 22-31 22-32 74 0 12 1 17l65 258q63 255 63 263 0 3-1 5-1 2-4 4-3 2-5 2-2 0-8 1-6 1-8 1-2 0-9 1-7 1-10 0-10 0-13 0-3 0-8 1-5 1-6 3-1 2-1 6 0 2 2 14 5 19 11 21 6 2 72 6 15 1 34 2 19 1 30 3 11 2 11 1 12 0 12-8 0-11-73-300-73-289-75-303 0-2 0-8 0-6-1-10v-6z"/><path id="D" d="M60 749l4 1q5 0 10 0h12l28-24q94-85 137-212 43-127 43-264 0-68-10-131-10-63-23-107-13-44-37-88-24-44-38-67-14-23-41-51-27-28-32-33-5-5-23-19-3-3-4-4H74q-8 0-11 0-3 0-5 3-2 3-3 9 1 1 11 13Q221-64 221 250q0 314-155 475-10 12-11 13 0 8 5 11z"/><path id="E" d="M297 596q0 31 21 48 21 17 43 17 17 0 28-10 11-10 14-28 0-28-19-47-19-19-44-19-18 0-30 10-12 10-13 29zm-9-220q0 29-26 29-22 0-42-12-20-12-35-31-15-19-24-37-9-18-17-32l-7-14q-2-1-16-1h-14q-6 6-6 8 0 2 4 13 21 49 59 92 38 43 88 50 1 0 8 0 7 0 12 1 24-1 44-10 25-14 38-31 13-17 13-53v-16l-49-199Q267-67 264-75q-18-50-70-89-52-39-119-40-50 0-68 21-18 21-19 46 0 27 19 46 19 19 46 20 17 0 29-10 12-10 13-31 0-36-32-55 6-1 14-1 34 0 62 28 28 28 43 66l11 42q11 43 26 104 15 61 32 125 17 64 27 111 10 47 11 57 0 7-1 11z"/><path id="F" d="M56 347q0 13 14 20h637q15-8 15-20 0-11-14-19l-318-1H72q-16 5-16 20zm0-194q0 15 16 20h636q14-10 14-20 0-13-15-20H70q-14 7-14 20z"/><path id="G" d="M60 948q3 2 605 2h602l58-135q59-138 63-146h-40l-7 14q-21 41-56 78-50 48-111 77-61 29-141 43-80 14-151 17-71 3-183 4H574h-31-292l8-11q463-633 465-639 1-2 0-6-3-3-264-302L196-356q0-1 211-1 52 0 141 0 89 0 128-1 136 0 220 5 84 5 167 21 83 16 141 49 58 33 103 87 21 26 41 72h40q0-1-7-21-7-20-25-65-18-45-31-84l-58-155-601-1q-602 0-605 2-6 2-6 9 0 2 2 6l533 610q0 1-33 45-33 44-105 144-72 100-130 178L56 909l-1 15q0 21 5 24z"/><path id="H" d="M184 600q0 24 19 42 19 18 44 19 18 0 30-12 12-12 13-30 0-23-20-42-20-19-44-20-15 0-28 10-13 10-14 33zM21 287q0 8 9 31 9 23 24 51 15 28 44 51 29 23 60 22 39 0 65-23 26-23 27-62 0-17-14-56-14-39-40-105-26-66-42-113-5-22-5-32 0-25 17-25 9 0 19 3 10 3 23 14 13 11 27 35 14 24 25 59 3 12 5 14 2 2 17 2 20 0 20-10 0-8-9-31-9-23-25-51-16-28-45-50-29-22-62-22-32 0-59 21-27 21-28 64 0 17 5 32 5 15 43 114 38 101 44 121 6 20 7 39 0 24-17 24h-2q-30 0-55-33-25-33-38-84-1-1-2-3-1-2-1-3 0-1-2-2-2-1-3-1-1 0-4 0-3 0-8 0H27q-6 6-6 9z"/><path id="I" d="M213 578l-13-5q-14-5-40-10-26-5-58-7H83v46h19q47 2 87 15 40 13 56 24 16 11 28 22 2 3 12 3 9 0 17-6V361l1-300q7-7 12-9 5-2 24-4 19-2 62-2h26V0h-11q-21 3-159 3-136 0-157-3H88v46h26q22 0 38 0 16 0 25 1 9 1 16 3 7 2 8 2 1 0 6 5 5 5 6 4v517z"/><path id="J" d="M21 287q1 6 3 16 2 10 12 38 10 28 20 47 10 19 33 37 23 18 46 17 36 0 60-18 24-18 30-34 6-16 6-21 0-2 1-2l11 11q61 64 139 64 54 0 87-27 33-27 34-79 1-52-38-157-39-105-38-127 0-26 17-26 6 0 9 1 29 5 52 38 23 33 35 80 2 8 20 8 20 0 20-8 0-1-4-15-8-29-22-57-14-28-46-56-32-28-69-27-47 0-68 27-21 27-21 56 0 19 36 120 36 101 37 152 0 59-44 59h-5q-86 0-145-101l-7-12-33-134Q156 26 151 16q-13-27-43-27-13 0-21 6-8 6-11 12-3 6-2 10 0 13 38 163 38 150 40 163 1 5 1 23 0 39-24 39-38 0-63-100-6-20-6-21-2-6-19-6H27q-6 6-6 9z"/><path id="K" d="M84 237T84 250T98 270H679Q694 262 694 250T679 230H98Q84 237 84 250Z"/><path id="L" d="M580 385q0 21 19 39 19 18 42 19 18 0 33-18 15-18 16-57 0-29-19-115-15-56-27-92-12-36-35-81-23-45-55-68-32-23-72-23-44 0-78 16-34 16-49 43-1-1-3-4-41-55-100-55-26 0-50 6-24 6-47 19-23 13-37 39-14 26-14 63 0 54 34 146 34 92 35 117 0 1 0 2 0 9 0 12 0 3-4 7-4 4-11 4h-4q-23 0-42-19-19-19-30-41-11-22-17-42-6-20-8-22-2-2-16-2H27q-6 6-6 9 0 6 8 28 8 22 23 51 15 29 44 52 29 23 65 23 43 0 66-25 23-25 23-58 0-18-33-108-33-90-33-139 0-46 21-65 21-19 53-20 43 0 76 61l5 9v23q0 3 0 9 0 6 1 8 1 2 1 7 0 5 1 9 1 4 3 13 2 9 3 17 1 8 6 24 5 16 8 32 3 16 11 43 29 114 33 123 13 27 43 27 19 0 26-10 7-10 8-19 0-13-29-128-29-115-32-132-2-11-2-35v-7q0-15 3-29 3-14 19-29 16-15 45-16 71 0 113 122 9 23 20 65 11 42 12 60 0 33-13 52-13 19-26 32-13 13-13 28z"/><path id="M" d="M52 289q7 42 54 97 47 55 116 56 35 0 64-18 29-18 43-45 42 63 101 63 37 0 64-22 27-22 28-59 0-29-14-47-14-18-27-22-13-4-23-4-19 0-31 11-12 11-12 29 0 46 50 63-11 13-40 13-13 0-19-2-38-16-56-66-60-221-60-258 0-28 16-40 16-12 35-12 37 0 73 33 36 33 49 81 3 10 6 11 3 1 16 2h4q15 0 15-8 0-1-2-11-16-57-62-101-46-44-107-44-70 0-106 63-41-62-94-62h-6q-49 0-70 26-21 26-22 55 0 32 19 52 19 20 45 20 43 0 43-42 0-20-12-35-12-15-23-20-11-5-13-5l-3-1q0-1 6-4 6-3 16-7 10-4 19-3 36 0 62 45 9 16 23 68 14 52 28 108 14 56 16 66 5 27 5 39 0 28-15 40-15 12-34 12-40 0-75-32-35-32-49-82-2-9-5-10-3-1-16-2H58q-6 6-6 11z"/><path id="N" d="M56 237q0 0 0 13 0 13 14 20h299v150l1 150q10 13 19 13 13 0 20-15V270h298q15-8 15-20 0-12-15-20H409V-68q-8-14-18-14h-2-2q-12 0-18 14v298H70q-14 7-14 20z"/><path id="O" d="M73 647q0 10 4 23 4 13 12 13 1 0 72 5 71 5 73 6 12 0 12-9 0-9-34-143-8-34-17-70-9-36-15-54l-4-19q0-3 6 3 49 40 101 40 62 0 100-46 38-46 39-116 0-111-79-201-79-90-170-90-50 0-91 38-41 38-42 123v9q0 21 8 58 8 37 49 197 50 197 50 209 0 12-38 14-5 0-8 0h-5q-10 0-13 0-3 0-7 3-4 3-3 7zm263-322v6q0 74-61 74-17 0-35-8-18-8-33-21-15-13-26-24-11-11-18-22l-6-8-21-86q-22-86-22-122 0-48 24-72 16-16 40-16 33 0 67 32 25 23 40 56 15 33 33 105 18 72 18 106z"/></defs><g transform="scale(1 -1)"><use xlink:href="#A"/><g transform="matrix(.707 0 0 .707 498 530.4)"><use xlink:href="#B"/><use xlink:href="#C" x="389"/><use xlink:href="#D" x="687"/></g><use xlink:href="#E" transform="matrix(.707 0 0 .707 498 -293.8)"/><use xlink:href="#F" x="1586.6"/><g transform="translate(2642.4)"><use xlink:href="#G" x="108"/><g transform="matrix(.707 0 0 .707 256.2 -1087.9)"><use xlink:href="#H"/><use xlink:href="#F" x="345"/><use xlink:href="#I" x="1123"/></g><g transform="matrix(.707 0 0 .707 0 1150)"><use xlink:href="#J"/><g transform="matrix(.707 0 0 .707 633 363)"><use xlink:href="#B"/><use xlink:href="#C" x="389"/><use xlink:href="#K" x="687"/><use xlink:href="#I" x="1465"/><use xlink:href="#D" x="1965"/></g></g></g><g transform="translate(4469)"><use xlink:href="#L"/><g transform="matrix(.707 0 0 .707 749 530.4)"><use xlink:href="#B"/><use xlink:href="#C" x="389"/><use xlink:href="#D" x="687"/></g><g transform="matrix(.707 0 0 .707 749 -293.8)"><use xlink:href="#H"/><use xlink:href="#E" x="345"/></g></g><g transform="translate(6028.9)"><use xlink:href="#M"/><g transform="matrix(.707 0 0 .707 605 530.4)"><use xlink:href="#B"/><use xlink:href="#C" x="389"/><use xlink:href="#K" x="687"/><use xlink:href="#I" x="1465"/><use xlink:href="#D" x="1965"/></g><use xlink:href="#H" transform="matrix(.707 0 0 .707 605 -293.8)"/></g><use xlink:href="#N" x="8570.6"/><g transform="translate(9570.8)"><use xlink:href="#O"/><g transform="matrix(.707 0 0 .707 462 530.4)"><use xlink:href="#B"/><use xlink:href="#C" x="389"/><use xlink:href="#D" x="687"/></g><use xlink:href="#E" transform="matrix(.707 0 0 .707 462 -293.8)"/></g></g></svg>
