<svg xmlns="http://www.w3.org/2000/svg" xmlns:xlink="http://www.w3.org/1999/xlink" width="112.624" height="41.24" viewBox="0 -950 6222.7 2278.6" xmlns:v="https://vecta.io/nano"><defs><path id="A" d="M347 338q-10 0-53 11-43 11-63 11-20 0-34-4-14-4-23-10-9-6-12-11-3-5-7-11l-2-4q-3-3-15-3-21 0-21 8 0 5 3 14 13 39 43 67 30 28 66 34 12 2 17 2 25 0 45-17 20-17 38-33 18-16 38-17 22 0 44 33 22 33 23 33 1 1 15 1h13q6-6 6-8 0-4-5-14-5-10-14-21-9-11-17-22-8-11-14-19l-7-9q-43-51-136-135-93-84-115-108l-12-12 15-1q22 0 64-11 42-11 63-11 38 0 70 19 32 19 42 50 4 9 7 11 3 2 15 2 19 0 19-10 0-5-1-9-17-62-66-103-49-41-98-42-26 0-46 17-20 17-39 34-19 17-38 17-44 0-79-60-6-8-17-8h-5-13q-6 6-6 9 0 15 58 86 39 45 132 130 93 85 115 108 12 16 7 16z"/><path id="B" d="M121 647q0 10 4 23 4 13 12 13 1 0 72 5 71 5 73 6 12 0 12-8 0-7-50-209-50-198-50-205 19 10 29 19 24 18 69 63 45 45 70 61 40 27 76 27 30 0 47-19 17-19 18-54 0-25-7-42-7-17-19-25-12-8-21-11-9-3-18-3-20 0-32 11-12 11-12 29 0 25 16 41 16 16 32 21l16 3q-12 12-24 12h-4q-32-3-63-25-31-22-73-64-42-42-66-61 2-1 15-3 13-2 24-6 11-4 26-8 15-4 27-14 12-10 22-18 10-8 17-26 7-18 6-33 0-17-5-41-5-24-6-40 0-40 27-40 48 0 78 119 2 8 20 8h4q16 0 16-9 0-5-3-14Q455-11 378-11q-45 0-73 26-28 26-28 75 0 18 3 31 3 13 3 24 0 22-14 38-14 16-35 23-21 7-34 11-13 4-18 3h-2q-12-42-21-81-9-39-14-58-5-19-9-37-4-18-7-24-3-6-7-13-4-7-11-9-13-9-28-9-17 0-26 10-9 10-9 17 0 10 37 160 37 150 73 295l37 145q1 13-7 16-8 3-39 5h-5q-10 0-13 0-3 0-7 3-4 3-3 7z"/><path id="C" d="M56 347q0 13 14 20h637q15-8 15-20 0-11-14-19l-318-1H72q-16 5-16 20zm0-194q0 15 16 20h636q14-10 14-20 0-13-15-20H70q-14 7-14 20z"/><path id="D" d="M60 948q3 2 605 2h602l58-135q59-138 63-146h-40l-7 14q-21 41-56 78-50 48-111 77-61 29-141 43-80 14-151 17-71 3-183 4H574h-31-292l8-11q463-633 465-639 1-2 0-6-3-3-264-302L196-356q0-1 211-1 52 0 141 0 89 0 128-1 136 0 220 5 84 5 167 21 83 16 141 49 58 33 103 87 21 26 41 72h40q0-1-7-21-7-20-25-65-18-45-31-84l-58-155-601-1q-602 0-605 2-6 2-6 9 0 2 2 6l533 610q0 1-33 45-33 44-105 144-72 100-130 178L56 909l-1 15q0 21 5 24z"/><path id="E" d="M297 596q0 31 21 48 21 17 43 17 17 0 28-10 11-10 14-28 0-28-19-47-19-19-44-19-18 0-30 10-12 10-13 29zm-9-220q0 29-26 29-22 0-42-12-20-12-35-31-15-19-24-37-9-18-17-32l-7-14q-2-1-16-1h-14q-6 6-6 8 0 2 4 13 21 49 59 92 38 43 88 50 1 0 8 0 7 0 12 1 24-1 44-10 25-14 38-31 13-17 13-53v-16l-49-199Q267-67 264-75q-18-50-70-89-52-39-119-40-50 0-68 21-18 21-19 46 0 27 19 46 19 19 46 20 17 0 29-10 12-10 13-31 0-36-32-55 6-1 14-1 34 0 62 28 28 28 43 66l11 42q11 43 26 104 15 61 32 125 17 64 27 111 10 47 11 57 0 7-1 11z"/><path id="F" d="M580 385q0 21 19 39 19 18 42 19 18 0 33-18 15-18 16-57 0-29-19-115-15-56-27-92-12-36-35-81-23-45-55-68-32-23-72-23-44 0-78 16-34 16-49 43-1-1-3-4-41-55-100-55-26 0-50 6-24 6-47 19-23 13-37 39-14 26-14 63 0 54 34 146 34 92 35 117 0 1 0 2 0 9 0 12 0 3-4 7-4 4-11 4h-4q-23 0-42-19-19-19-30-41-11-22-17-42-6-20-8-22-2-2-16-2H27q-6 6-6 9 0 6 8 28 8 22 23 51 15 29 44 52 29 23 65 23 43 0 66-25 23-25 23-58 0-18-33-108-33-90-33-139 0-46 21-65 21-19 53-20 43 0 76 61l5 9v23q0 3 0 9 0 6 1 8 1 2 1 7 0 5 1 9 1 4 3 13 2 9 3 17 1 8 6 24 5 16 8 32 3 16 11 43 29 114 33 123 13 27 43 27 19 0 26-10 7-10 8-19 0-13-29-128-29-115-32-132-2-11-2-35v-7q0-15 3-29 3-14 19-29 16-15 45-16 71 0 113 122 9 23 20 65 11 42 12 60 0 33-13 52-13 19-26 32-13 13-13 28z"/><path id="G" d="M33 157q0 101 76 192 76 91 171 92 51 0 90-49 16 30 46 30 13 0 23-8 10-8 10-20 0-13-37-160-37-147-38-166 0-25 7-33 7-8 21-9 9 1 20 9 21 20 41 96 6 20 10 21 2 1 10 1h4q19 0 19-9 0-6-5-27-5-21-20-54-15-33-32-50-13-13-32-21-8-2-24-2-34 0-57 15-23 15-30 31l-6 15q-1 1-4-1-2-2-4-4-59-56-120-56-55 0-97 40-42 40-42 127zm318 171q0 6-5 22-5 16-23 35-18 19-46 20-35 0-67-31-32-31-50-81-29-79-41-164 0-3 0-11 0-8-1-12 0-45 18-62 18-17 43-18 38 0 75 33 37 33 44 51 2 4 27 107 25 103 26 111z"/></defs><g transform="scale(1 -1)"><use xlink:href="#A"/><use xlink:href="#B" transform="matrix(.707 0 0 .707 498 -150)"/><use xlink:href="#C" x="1194.2"/><g transform="translate(2250)"><use xlink:href="#D"/><use xlink:href="#E" transform="matrix(.707 0 0 .707 576.3 -1084.4)"/></g><g transform="translate(3860.6)"><use xlink:href="#F"/><g transform="matrix(.707 0 0 .707 749 -150)"><use xlink:href="#E"/><use xlink:href="#B" x="412"/></g></g><g transform="translate(5319.4)"><use xlink:href="#G"/><use xlink:href="#E" transform="matrix(.707 0 0 .707 562 -150)"/></g></g></svg>