<svg xmlns="http://www.w3.org/2000/svg" xmlns:xlink="http://www.w3.org/1999/xlink" width="280.024" height="42.92" viewBox="0 -1391 15471.1 2371.2" xmlns:v="https://vecta.io/nano"><defs><path id="A" d="M580 385q0 21 19 39 19 18 42 19 18 0 33-18 15-18 16-57 0-29-19-115-15-56-27-92-12-36-35-81-23-45-55-68-32-23-72-23-44 0-78 16-34 16-49 43-1-1-3-4-41-55-100-55-26 0-50 6-24 6-47 19-23 13-37 39-14 26-14 63 0 54 34 146 34 92 35 117 0 1 0 2 0 9 0 12 0 3-4 7-4 4-11 4h-4q-23 0-42-19-19-19-30-41-11-22-17-42-6-20-8-22-2-2-16-2H27q-6 6-6 9 0 6 8 28 8 22 23 51 15 29 44 52 29 23 65 23 43 0 66-25 23-25 23-58 0-18-33-108-33-90-33-139 0-46 21-65 21-19 53-20 43 0 76 61l5 9v23q0 3 0 9 0 6 1 8 1 2 1 7 0 5 1 9 1 4 3 13 2 9 3 17 1 8 6 24 5 16 8 32 3 16 11 43 29 114 33 123 13 27 43 27 19 0 26-10 7-10 8-19 0-13-29-128-29-115-32-132-2-11-2-35v-7q0-15 3-29 3-14 19-29 16-15 45-16 71 0 113 122 9 23 20 65 11 42 12 60 0 33-13 52-13 19-26 32-13 13-13 28z"/><path id="B" d="M21 287q1 6 3 16 2 10 12 38 10 28 20 47 10 19 33 37 23 18 46 17 36 0 60-18 24-18 30-34 6-16 6-21 0-2 1-2l11 11q61 64 139 64 54 0 87-27 33-27 34-79 1-52-38-157-39-105-38-127 0-26 17-26 6 0 9 1 29 5 52 38 23 33 35 80 2 8 20 8 20 0 20-8 0-1-4-15-8-29-22-57-14-28-46-56-32-28-69-27-47 0-68 27-21 27-21 56 0 19 36 120 36 101 37 152 0 59-44 59h-5q-86 0-145-101l-7-12-33-134Q156 26 151 16q-13-27-43-27-13 0-21 6-8 6-11 12-3 6-2 10 0 13 38 163 38 150 40 163 1 5 1 23 0 39-24 39-38 0-63-100-6-20-6-21-2-6-19-6H27q-6 6-6 9z"/><path id="C" d="M39 168Q39 225 58 272T107 350T174 402T244 433T307 442H310Q355 442 388 420T421 355Q421 265 310 237Q261 224 176 223Q139 223 138 221Q138 219 132 186T125 128Q125 81 146 54T209 26T302 45T394 111Q403 121 406 121Q410 121 419 112T429 98T420 82T390 55T344 24T281 -1T205 -11Q126 -11 83 42T39 168ZM373 353Q367 405 305 405Q272 405 244 391T199 357T170 316T154 280T149 261Q149 260 169 260Q282 260 327 284T373 353Z"/><path id="D" d="M56 347q0 13 14 20h637q15-8 15-20 0-11-14-19l-318-1H72q-16 5-16 20zm0-194q0 15 16 20h636q14-10 14-20 0-13-15-20H70q-14 7-14 20z"/><path id="E" d="M201 -11Q126 -11 80 38T34 156Q34 221 64 279T146 380Q222 441 301 441Q333 441 341 440Q354 437 367 433T402 417T438 387T464 338T476 268Q476 161 390 75T201 -11ZM121 120Q121 70 147 48T206 26Q250 26 289 58T351 142Q360 163 374 216T388 308Q388 352 370 375Q346 405 306 405Q243 405 195 347Q158 303 140 230T121 120Z"/><path id="F" d="M117 59q0-33 25-33 37 0 63 105 6 20 10 21 2 1 10 1h4q9 0 12 0 3 0 5-2 2-2 2-7-1-6-3-16-2-10-11-38-9-28-20-47-11-19-31-37-20-18-46-17-36 0-67 22-31 22-32 74 0 12 1 17l65 258q63 255 63 263 0 3-1 5-1 2-4 4-3 2-5 2-2 0-8 1-6 1-8 1-2 0-9 1-7 1-10 0-10 0-13 0-3 0-8 1-5 1-6 3-1 2-1 6 0 2 2 14 5 19 11 21 6 2 72 6 15 1 34 2 19 1 30 3 11 2 11 1 12 0 12-8 0-11-73-300-73-289-75-303 0-2 0-8 0-6-1-10v-6z"/><path id="G" d="M366 683q1 0 72 5 71 5 73 6 12 0 12-8 0-7-73-302-73-295-75-301-2-6-1-15 0-42 28-42 9 1 20 9 21 20 41 96 6 20 10 21 2 1 10 1h4 4q15 0 15-8 0-5-3-16-13-50-30-81-17-31-28-40-11-9-28-16-8-2-24-2-34 0-57 15-23 15-30 31l-6 15q-1 1-4-1-2-2-4-4-59-56-120-56-55 0-97 40-42 40-42 127 0 48 20 98 20 50 48 86 47 57 94 79 47 22 85 22 56 0 84-42 5-6 5-4 1 4 27 109 26 105 28 111 0 13-7 16-7 3-39 5h-21q-6 6-6 8 0 2 2 19 5 19 13 19zm-14-357q-23 79-75 79-35 0-67-31-32-31-50-81-29-79-41-164 0-3 0-11 0-8-1-12 0-45 18-62 18-17 43-18 54 0 111 72l8 11 54 217z"/><path id="H" d="M84 237T84 250T98 270H679Q694 262 694 250T679 230H98Q84 237 84 250Z"/><path id="I" d="M42 46h14q39 0 47 14v8q0 9 0 23 0 14 0 33 0 19 1 43 1 24 0 50-1 26 0 55 1 29 0 57 0 37 0 78 0 41 0 75 0 34 0 60 0 26-1 44-1 18 0 17-3 19-14 25-11 6-45 9H26v23q0 23 2 23l10 1q10 1 29 2 19 1 37 2 17 1 37 2 20 1 30 3 10 2 11 1h3V379q0-317 1-319 4-8 12-11 21-3 49-3h16V0h-8l-23 1q-23 1-49 1-26 0-38 1-12 1-38 0-26-1-50-2L34 0h-8v46h16z"/><path id="J" d="M28 218q0 55 20 100 20 45 50 73 30 28 65 42 35 14 66 15 53 0 91-18 38-18 58-50 20-32 28-64 8-32 9-71 0-7-7-14H126v-15q0-148 100-180 20-6 44-6 42 0 72 32 17 17 27 42l10 24q3 3 16 3h3q17 0 17-10 0-4-3-13-19-55-63-87-44-32-99-32-95 0-158 69-63 69-64 160zm305 57q-11 128-95 136h-2q-8 0-16-1-8-1-25-8-17-7-29-21-12-14-23-41-11-27-16-66v-7h206v8z"/><path id="K" d="M137 305T115 305T78 320T63 359Q63 394 97 421T218 448Q291 448 336 416T396 340Q401 326 401 309T402 194V124Q402 76 407 58T428 40Q443 40 448 56T453 109V145H493V106Q492 66 490 59Q481 29 455 12T400 -6T353 12T329 54V58L327 55Q325 52 322 49T314 40T302 29T287 17T269 6T247 -2T221 -8T190 -11Q130 -11 82 20T34 107Q34 128 41 147T68 188T116 225T194 253T304 268H318V290Q318 324 312 340Q290 411 215 411Q197 411 181 410T156 406T148 403Q170 388 170 359Q170 334 154 320ZM126 106Q126 75 150 51T209 26Q247 26 276 49T315 109Q317 116 318 175Q318 233 317 233Q309 233 296 232T251 223T193 203T147 166T126 106Z"/><path id="L" d="M36 46h14q39 0 47 14v8q0 9 0 23 0 14 1 31 1 17 0 39-1 22 0 42 0 31 0 66 0 35 0 59l-1 23q-3 19-14 25-11 6-45 9H20v23q0 23 2 23l10 1q10 1 28 2 18 1 36 2 16 1 35 2 19 1 29 3 10 2 11 1h3v-69q39 68 97 68h6q45 0 66-22 21-22 21-46 0-21-13-36-13-15-38-15-25 0-37 16-12 16-13 34 0 9 2 16 2 7 5 12 3 5 3 5-2 2-23-4-16-8-24-15-47-45-47-179v-53q0-13 0-27 0-14 0-26 0-12 1-20 1-8 0-15v-5q1-2 3-4 2-2 5-3 3-1 5-3 2-2 7-2 5 0 7-1 2-1 9-1 7 0 9 0 2 0 10-1 8-1 10 0h31V0h-9q-18 3-127 3Q37 3 28 0h-8v46h16z"/><path id="M" d="M41 46h14q39 0 47 14v8q0 9 0 23 0 14 0 31 0 17 1 39 1 22 0 42 0 31 0 66 0 35-1 59v23q-3 19-14 25-11 6-45 9H25v23q0 23 2 23l10 1q10 1 28 2 18 1 37 2 17 1 36 2 19 1 29 3 10 2 11 1h3v-40q0-38 1-38 1 0 5 5 4 5 12 15 8 10 19 18 11 8 29 19 18 11 38 16 20 5 51 5 114-4 127-113 1-7 1-139v-86q0-38 2-45 2-7 11-10 21-3 49-3h16V0h-8l-24 1q-23 1-50 1-27 0-38 1-103 0-112-3h-8v46h16q61 0 61 16 1 2 1 138-1 135-2 143-6 28-20 42-14 14-24 17-10 3-26 2-45 0-79-34-27-27-34-55-7-28-8-83v-64-60q0-30 1-40 1-10 3-13 2-3 9-6 21-3 49-3h16V0h-8l-23 1q-24 1-51 1-27 0-38 1Q42 3 33 0h-8v46h16z"/><path id="N" d="M69 609q0 28 18 44 18 16 44 16 23-2 40-17 17-15 17-43 0-30-17-45-17-15-42-15-25 0-42 15-17 15-18 45zM247 0q-15 3-104 3-11 0-37 0-26 0-50-2L34 0h-8v46h16q28 0 49 3 9 4 11 11 2 7 2 42v103 88q0 52-2 66-2 14-14 19-14 7-47 7H30v23q0 23 2 23l10 1q10 1 28 2 18 1 36 2 17 1 36 2 19 1 29 3 10 2 11 1h3V62q5-10 12-12 7-2 35-4h23V0h-8z"/><path id="O" d="M329 409q44 44 100 44 30 0 43-19 13-19 13-38 0-14-9-25-9-11-27-11-33 0-37 30-2 14 3 21 0 1 1 3v1q-28-3-53-22-8-5-8-7 0-1 4-5 4-4 9-12 5-8 11-18 6-10 9-26 3-16 4-33 0-62-49-105-49-43-121-44-50 0-99 28-11-18-11-38 0-35 26-52 9-6 17-6 8 0 72-2 84-1 108-6 61-9 96-41 39-39 39-98 0-67-78-103-60-31-142-31-83 0-143 31-78 35-78 100 0 36 21 60Q71 9 92 18l11 6q-36 31-36 84 0 47 29 85-44 44-44 99 0 63 50 106 50 43 121 44 51 0 95-26l11-7zm-30-66q-5 28-26 44-21 16-52 17-29 0-50-16-21-16-26-45-3-17-3-51 0-44 7-65 7-21 30-35 17-10 43-10 22 0 38 7 16 7 23 18 7 11 11 20 4 9 5 15 3 16 3 50 0 34-3 51zM403-75q0 25-14 41-14 16-41 23-27 7-49 9-22 2-54 2h-27q-67 0-80-6-20-9-31-28-11-19-12-40 0-10 6-23 6-13 21-30 15-17 48-28 33-11 80-12 69 0 111 28 42 28 42 64z"/><path id="P" d="M130 622q-7 7-11 9-4 2-16 3-12 1-43 3H27v46h175 34 64q76 0 117-6 41-6 83-29 95-48 109-131 1-5 1-16 0-33-16-62-16-29-38-47-22-18-45-31-23-13-39-18l-16-5q3-3 11-6 30-16 49-34 19-18 29-44 10-26 14-43 4-17 9-56 5-39 10-61 10-48 24-63 14-15 38-15h5q15 0 29 16 14 16 18 55 0 11 4 14 4 3 16 4 12 1 16-2 4-3 4-13 0-31-16-63-16-32-44-43-16-6-42-6-149 6-172 112-2 11-2 73 0 62-7 83-19 58-76 74l-10 2-66 1h-66V192l1-131q6-10 17-12 11-2 52-3h33V0h-11q-21 3-142 3Q59 3 38 0H27v46h33q42 1 51 3 9 2 19 12v561zm361-123v10q0 18-1 30-1 12-9 31-8 19-19 31-11 12-38 22-27 10-62 13-2 0-22 0-20 0-36 1h-21q-45 0-49-9-3-4-3-136V360h58q101 0 145 18 44 18 55 78 2 11 2 43z"/><path id="Q" d="M27 422q53 4 82 56 29 52 32 122v15h40V431h135v-46H181V241q1-125 1-141 0-16 7-32 14-39 49-39 44 0 54 71 1 8 1 46v35h40v-35-12q0-77-42-117-27-27-70-27-34 0-59 12-25 12-38 31-13 19-19 35-6 16-7 32-1 7-1 148v137H18v37h9z"/><path id="R" d="M630 29q0-20-21-20-5 0-22 16-17 16-94 93L389 222 284 117Q178 13 175 11q-4-2-7-2-8 0-14 6-6 6-7 14 0 7 14 22 14 15 94 95l104 104-104 104q-81 81-94 95-13 14-14 22 0 9 6 14 6 5 15 5 5 0 7-1 3-2 109-106l105-105 104 104q77 77 94 93 17 16 22 16 21 0 21-20 0-7-10-18-10-11-98-98L418 250l104-105q84-84 96-97 12-13 12-19z"/><path id="S" d="M202 508q-23 0-33 12-10 12-11 27 0 10 6 30 6 20 21 47 15 27 45 51 30 24 71 35l32 5h12q33 0 39-1 63-11 105-53 42-42 60-93 18-51 17-111 0-95-47-217-47-122-117-187-81-75-179-75-100 0-150 78-31 46-31 92v11q0 117 87 211 87 94 193 95 61 0 92-31 31-31 41-67l3 11q20 83 20 137 0 88-41 124-41 36-93 37-78 0-121-64 41-6 41-40 0-25-18-44-18-19-44-20zm228-202q0 66-29 94-29 28-68 28-63 0-111-46-25-28-39-59-14-31-33-102-18-72-18-105 0-95 100-95 12 0 18 1 77 13 124 90 15 25 35 84 20 59 21 110z"/><path id="T" d="M228 637q-34 0-36 4-1 2-1 8 0 24 11 33 2 1 15 1 54-3 127-3 141 0 162 3h12q6-6 6-9 0-3-2-18-5-15-9-19h-38q-69-1-81-9-7-4-14-28-7-24-67-264-16-65-34-138-18-73-27-110l-9-36q0-4 9-4 9 0 59-2h17q32 0 51 1 19 1 49 7 30 6 50 18 20 12 44 34 24 22 42 55 16 30 30 67 14 37 17 42 5 3 17 3h13q6-9 6-11 0-2-20-59-20-57-44-120-24-63-26-74-2-5-4-6-2-1-16-3-14-2-43-1-11 0-76 0-65 0-124 1H116Q32 0 32 10q0 7 2 14 5 19 10 21 4 1 15 1h6q27 0 60 3 14 3 19 12 3 4 72 278 69 274 69 289 0 7-57 9z"/><path id="U" d="M184 600q0 24 19 42 19 18 44 19 18 0 30-12 12-12 13-30 0-23-20-42-20-19-44-20-15 0-28 10-13 10-14 33zM21 287q0 8 9 31 9 23 24 51 15 28 44 51 29 23 60 22 39 0 65-23 26-23 27-62 0-17-14-56-14-39-40-105-26-66-42-113-5-22-5-32 0-25 17-25 9 0 19 3 10 3 23 14 13 11 27 35 14 24 25 59 3 12 5 14 2 2 17 2 20 0 20-10 0-8-9-31-9-23-25-51-16-28-45-50-29-22-62-22-32 0-59 21-27 21-28 64 0 17 5 32 5 15 43 114 38 101 44 121 6 20 7 39 0 24-17 24h-2q-30 0-55-33-25-33-38-84-1-1-2-3-1-2-1-3 0-1-2-2-2-1-3-1-1 0-4 0-3 0-8 0H27q-6 6-6 9z"/><path id="V" d="M297 596q0 31 21 48 21 17 43 17 17 0 28-10 11-10 14-28 0-28-19-47-19-19-44-19-18 0-30 10-12 10-13 29zm-9-220q0 29-26 29-22 0-42-12-20-12-35-31-15-19-24-37-9-18-17-32l-7-14q-2-1-16-1h-14q-6 6-6 8 0 2 4 13 21 49 59 92 38 43 88 50 1 0 8 0 7 0 12 1 24-1 44-10 25-14 38-31 13-17 13-53v-16l-49-199Q267-67 264-75q-18-50-70-89-52-39-119-40-50 0-68 21-18 21-19 46 0 27 19 46 19 19 46 20 17 0 29-10 12-10 13-31 0-36-32-55 6-1 14-1 34 0 62 28 28 28 43 66l11 42q11 43 26 104 15 61 32 125 17 64 27 111 10 47 11 57 0 7-1 11z"/></defs><g  stroke="#eee" fill="#eee"  transform="scale(1 -1)"><use xlink:href="#A"/><g transform="matrix(.707 0 0 .707 749 -150)"><use xlink:href="#B"/><use xlink:href="#C" x="600"/><use xlink:href="#A" x="1066"/></g><use xlink:href="#D" x="2336.8"/><g transform="translate(3392.6)"><use xlink:href="#A"/><g transform="matrix(.707 0 0 .707 749 -150)"><use xlink:href="#E"/><use xlink:href="#F" x="485"/><use xlink:href="#G" x="783"/></g></g><use xlink:href="#H" x="5335.2"/><g transform="translate(6335.4)"><use xlink:href="#I"/><use xlink:href="#J" x="278"/><use xlink:href="#K" x="722"/><use xlink:href="#L" x="1222"/><use xlink:href="#M" x="1614"/><use xlink:href="#N" x="2170"/><use xlink:href="#M" x="2448"/><use xlink:href="#O" x="3004"/><use xlink:href="#P" x="3504"/><use xlink:href="#K" x="4240"/><use xlink:href="#Q" x="4740"/><use xlink:href="#J" x="5129"/></g><use xlink:href="#R" x="12130.6"/><g transform="translate(13130.9)"><g transform="translate(546.6 676)"><use xlink:href="#S"/><use xlink:href="#T" x="566"/></g><g transform="translate(220 -686)"><use xlink:href="#S"/><g transform="translate(566)"><use xlink:href="#A"/><g transform="matrix(.707 0 0 .707 749 -150)"><use xlink:href="#U"/><use xlink:href="#V" x="345"/></g></g></g><path d="M120 220h2100.3v60H120z"/></g></g></svg>