<svg xmlns="http://www.w3.org/2000/svg" xmlns:xlink="http://www.w3.org/1999/xlink" width="261.112" height="48.592" viewBox="0 -1469.2 14426.5 2684.8" xmlns:v="https://vecta.io/nano"><defs><path id="A" d="M202 508q-23 0-33 12-10 12-11 27 0 10 6 30 6 20 21 47 15 27 45 51 30 24 71 35l32 5h12q33 0 39-1 63-11 105-53 42-42 60-93 18-51 17-111 0-95-47-217-47-122-117-187-81-75-179-75-100 0-150 78-31 46-31 92v11q0 117 87 211 87 94 193 95 61 0 92-31 31-31 41-67l3 11q20 83 20 137 0 88-41 124-41 36-93 37-78 0-121-64 41-6 41-40 0-25-18-44-18-19-44-20zm228-202q0 66-29 94-29 28-68 28-63 0-111-46-25-28-39-59-14-31-33-102-18-72-18-105 0-95 100-95 12 0 18 1 77 13 124 90 15 25 35 84 20 59 21 110z"/><path id="B" d="M228 637q-34 0-36 4-1 2-1 8 0 24 11 33 2 1 15 1 54-3 127-3 141 0 162 3h12q6-6 6-9 0-3-2-18-5-15-9-19h-38q-69-1-81-9-7-4-14-28-7-24-67-264-16-65-34-138-18-73-27-110l-9-36q0-4 9-4 9 0 59-2h17q32 0 51 1 19 1 49 7 30 6 50 18 20 12 44 34 24 22 42 55 16 30 30 67 14 37 17 42 5 3 17 3h13q6-9 6-11 0-2-20-59-20-57-44-120-24-63-26-74-2-5-4-6-2-1-16-3-14-2-43-1-11 0-76 0-65 0-124 1H116Q32 0 32 10q0 7 2 14 5 19 10 21 4 1 15 1h6q27 0 60 3 14 3 19 12 3 4 72 278 69 274 69 289 0 7-57 9z"/><path id="C" d="M580 385q0 21 19 39 19 18 42 19 18 0 33-18 15-18 16-57 0-29-19-115-15-56-27-92-12-36-35-81-23-45-55-68-32-23-72-23-44 0-78 16-34 16-49 43-1-1-3-4-41-55-100-55-26 0-50 6-24 6-47 19-23 13-37 39-14 26-14 63 0 54 34 146 34 92 35 117 0 1 0 2 0 9 0 12 0 3-4 7-4 4-11 4h-4q-23 0-42-19-19-19-30-41-11-22-17-42-6-20-8-22-2-2-16-2H27q-6 6-6 9 0 6 8 28 8 22 23 51 15 29 44 52 29 23 65 23 43 0 66-25 23-25 23-58 0-18-33-108-33-90-33-139 0-46 21-65 21-19 53-20 43 0 76 61l5 9v23q0 3 0 9 0 6 1 8 1 2 1 7 0 5 1 9 1 4 3 13 2 9 3 17 1 8 6 24 5 16 8 32 3 16 11 43 29 114 33 123 13 27 43 27 19 0 26-10 7-10 8-19 0-13-29-128-29-115-32-132-2-11-2-35v-7q0-15 3-29 3-14 19-29 16-15 45-16 71 0 113 122 9 23 20 65 11 42 12 60 0 33-13 52-13 19-26 32-13 13-13 28z"/><path id="D" d="M184 600q0 24 19 42 19 18 44 19 18 0 30-12 12-12 13-30 0-23-20-42-20-19-44-20-15 0-28 10-13 10-14 33zM21 287q0 8 9 31 9 23 24 51 15 28 44 51 29 23 60 22 39 0 65-23 26-23 27-62 0-17-14-56-14-39-40-105-26-66-42-113-5-22-5-32 0-25 17-25 9 0 19 3 10 3 23 14 13 11 27 35 14 24 25 59 3 12 5 14 2 2 17 2 20 0 20-10 0-8-9-31-9-23-25-51-16-28-45-50-29-22-62-22-32 0-59 21-27 21-28 64 0 17 5 32 5 15 43 114 38 101 44 121 6 20 7 39 0 24-17 24h-2q-30 0-55-33-25-33-38-84-1-1-2-3-1-2-1-3 0-1-2-2-2-1-3-1-1 0-4 0-3 0-8 0H27q-6 6-6 9z"/><path id="E" d="M297 596q0 31 21 48 21 17 43 17 17 0 28-10 11-10 14-28 0-28-19-47-19-19-44-19-18 0-30 10-12 10-13 29zm-9-220q0 29-26 29-22 0-42-12-20-12-35-31-15-19-24-37-9-18-17-32l-7-14q-2-1-16-1h-14q-6 6-6 8 0 2 4 13 21 49 59 92 38 43 88 50 1 0 8 0 7 0 12 1 24-1 44-10 25-14 38-31 13-17 13-53v-16l-49-199Q267-67 264-75q-18-50-70-89-52-39-119-40-50 0-68 21-18 21-19 46 0 27 19 46 19 19 46 20 17 0 29-10 12-10 13-31 0-36-32-55 6-1 14-1 34 0 62 28 28 28 43 66l11 42q11 43 26 104 15 61 32 125 17 64 27 111 10 47 11 57 0 7-1 11z"/><path id="F" d="M56 347q0 13 14 20h637q15-8 15-20 0-11-14-19l-318-1H72q-16 5-16 20zm0-194q0 15 16 20h636q14-10 14-20 0-13-15-20H70q-14 7-14 20z"/><path id="G" d="M60 948q3 2 605 2h602l58-135q59-138 63-146h-40l-7 14q-21 41-56 78-50 48-111 77-61 29-141 43-80 14-151 17-71 3-183 4H574h-31-292l8-11q463-633 465-639 1-2 0-6-3-3-264-302L196-356q0-1 211-1 52 0 141 0 89 0 128-1 136 0 220 5 84 5 167 21 83 16 141 49 58 33 103 87 21 26 41 72h40q0-1-7-21-7-20-25-65-18-45-31-84l-58-155-601-1q-602 0-605 2-6 2-6 9 0 2 2 6l533 610q0 1-33 45-33 44-105 144-72 100-130 178L56 909l-1 15q0 21 5 24z"/><path id="H" d="M121 647q0 10 4 23 4 13 12 13 1 0 72 5 71 5 73 6 12 0 12-8 0-7-50-209-50-198-50-205 19 10 29 19 24 18 69 63 45 45 70 61 40 27 76 27 30 0 47-19 17-19 18-54 0-25-7-42-7-17-19-25-12-8-21-11-9-3-18-3-20 0-32 11-12 11-12 29 0 25 16 41 16 16 32 21l16 3q-12 12-24 12h-4q-32-3-63-25-31-22-73-64-42-42-66-61 2-1 15-3 13-2 24-6 11-4 26-8 15-4 27-14 12-10 22-18 10-8 17-26 7-18 6-33 0-17-5-41-5-24-6-40 0-40 27-40 48 0 78 119 2 8 20 8h4q16 0 16-9 0-5-3-14Q455-11 378-11q-45 0-73 26-28 26-28 75 0 18 3 31 3 13 3 24 0 22-14 38-14 16-35 23-21 7-34 11-13 4-18 3h-2q-12-42-21-81-9-39-14-58-5-19-9-37-4-18-7-24-3-6-7-13-4-7-11-9-13-9-28-9-17 0-26 10-9 10-9 17 0 10 37 160 37 150 73 295l37 145q1 13-7 16-8 3-39 5h-5q-10 0-13 0-3 0-7 3-4 3-3 7z"/><path id="I" d="M701 -940Q701 -943 695 -949H664Q662 -947 636 -922T591 -879T537 -818T475 -737T412 -636T350 -511T295 -362T250 -186T221 17T209 251Q209 962 573 1361Q596 1386 616 1405T649 1437T664 1450H695Q701 1444 701 1441Q701 1436 681 1415T629 1356T557 1261T476 1118T400 927T340 675T308 359Q306 321 306 250Q306 -139 400 -430T690 -924Q701 -936 701 -940Z"/><path id="J" d="M201 -11Q126 -11 80 38T34 156Q34 221 64 279T146 380Q222 441 301 441Q333 441 341 440Q354 437 367 433T402 417T438 387T464 338T476 268Q476 161 390 75T201 -11ZM121 120Q121 70 147 48T206 26Q250 26 289 58T351 142Q360 163 374 216T388 308Q388 352 370 375Q346 405 306 405Q243 405 195 347Q158 303 140 230T121 120Z"/><path id="K" d="M78 250Q78 274 95 292T138 310Q162 310 180 294T199 251Q199 226 182 208T139 190T96 207T78 250Z"/><path id="L" d="M347 338q-10 0-53 11-43 11-63 11-20 0-34-4-14-4-23-10-9-6-12-11-3-5-7-11l-2-4q-3-3-15-3-21 0-21 8 0 5 3 14 13 39 43 67 30 28 66 34 12 2 17 2 25 0 45-17 20-17 38-33 18-16 38-17 22 0 44 33 22 33 23 33 1 1 15 1h13q6-6 6-8 0-4-5-14-5-10-14-21-9-11-17-22-8-11-14-19l-7-9q-43-51-136-135-93-84-115-108l-12-12 15-1q22 0 64-11 42-11 63-11 38 0 70 19 32 19 42 50 4 9 7 11 3 2 15 2 19 0 19-10 0-5-1-9-17-62-66-103-49-41-98-42-26 0-46 17-20 17-39 34-19 17-38 17-44 0-79-60-6-8-17-8h-5-13q-6 6-6 9 0 15 58 86 39 45 132 130 93 85 115 108 12 16 7 16z"/><path id="M" d="M34 1438Q34 1446 37 1448T50 1450H56H71Q73 1448 99 1423T144 1380T198 1319T260 1238T323 1137T385 1013T440 864T485 688T514 485T526 251Q526 134 519 53Q472 -519 162 -860Q139 -885 119 -904T86 -936T71 -949H56Q43 -949 39 -947T34 -937Q88 -883 140 -813Q428 -430 428 251Q428 453 402 628T338 922T245 1146T145 1309T46 1425Q44 1427 42 1429T39 1433T36 1436L34 1438Z"/></defs><g  stroke="#eee" fill="#eee"  transform="scale(1 -1)"><g transform="translate(546.6 676)"><use xlink:href="#A"/><use xlink:href="#B" x="566"/></g><g transform="translate(220 -686)"><use xlink:href="#A"/><g transform="translate(566)"><use xlink:href="#C"/><g transform="matrix(.707 0 0 .707 749 -150)"><use xlink:href="#D"/><use xlink:href="#E" x="345"/></g></g></g><path d="M120 220h2100.3v60H120z"/><use xlink:href="#F" x="2618.1"/><g transform="translate(3673.8)"><use xlink:href="#G"/><use xlink:href="#H" transform="matrix(.707 0 0 .707 537.8 -1107.7)"/></g><g transform="translate(5284.5)"><use xlink:href="#I" y="-.5"/><g transform="translate(736)"><g transform="translate(347.7 676)"><use xlink:href="#A"/><use xlink:href="#B" x="566"/></g><g transform="translate(220 -686)"><use xlink:href="#A"/><g transform="translate(566)"><use xlink:href="#J"/><use xlink:href="#H" transform="matrix(.707 0 0 .707 518 -150)"/></g></g><path d="M120 220h1702.4v60H120z"/></g><use xlink:href="#K" x="2900.6"/><g transform="translate(3400.8)"><g transform="translate(220 676)"><use xlink:href="#A"/><g transform="translate(566)"><use xlink:href="#J"/><use xlink:href="#H" transform="matrix(.707 0 0 .707 518 -150)"/></g></g><g transform="translate(268.5 -686)"><use xlink:href="#A"/><g transform="translate(566)"><use xlink:href="#L"/><use xlink:href="#E" transform="matrix(.707 0 0 .707 498 -150)"/></g></g><path d="M120 220h1702.4v60H120z"/></g><use xlink:href="#K" x="5565.5"/><g transform="translate(6065.7)"><g transform="translate(467.5 754.2)"><use xlink:href="#A"/><g transform="translate(566)"><use xlink:href="#L"/><use xlink:href="#E" transform="matrix(.707 0 0 .707 498 -150)"/></g></g><g transform="translate(220 -686)"><use xlink:href="#A"/><g transform="translate(566)"><use xlink:href="#C"/><g transform="matrix(.707 0 0 .707 749 -150)"><use xlink:href="#D"/><use xlink:href="#E" x="345"/></g></g></g><path d="M120 220h2100.3v60H120z"/></g><use xlink:href="#M" x="8406" y="-.5"/></g></g></svg>