<svg xmlns="http://www.w3.org/2000/svg" xmlns:xlink="http://www.w3.org/1999/xlink" width="99.896" height="44.336" viewBox="0 -1469.2 5519.2 2449.5" xmlns:v="https://vecta.io/nano"><defs><path id="A" d="M202 508q-23 0-33 12-10 12-11 27 0 10 6 30 6 20 21 47 15 27 45 51 30 24 71 35l32 5h12q33 0 39-1 63-11 105-53 42-42 60-93 18-51 17-111 0-95-47-217-47-122-117-187-81-75-179-75-100 0-150 78-31 46-31 92v11q0 117 87 211 87 94 193 95 61 0 92-31 31-31 41-67l3 11q20 83 20 137 0 88-41 124-41 36-93 37-78 0-121-64 41-6 41-40 0-25-18-44-18-19-44-20zm228-202q0 66-29 94-29 28-68 28-63 0-111-46-25-28-39-59-14-31-33-102-18-72-18-105 0-95 100-95 12 0 18 1 77 13 124 90 15 25 35 84 20 59 21 110z"/><path id="B" d="M347 338q-10 0-53 11-43 11-63 11-20 0-34-4-14-4-23-10-9-6-12-11-3-5-7-11l-2-4q-3-3-15-3-21 0-21 8 0 5 3 14 13 39 43 67 30 28 66 34 12 2 17 2 25 0 45-17 20-17 38-33 18-16 38-17 22 0 44 33 22 33 23 33 1 1 15 1h13q6-6 6-8 0-4-5-14-5-10-14-21-9-11-17-22-8-11-14-19l-7-9q-43-51-136-135-93-84-115-108l-12-12 15-1q22 0 64-11 42-11 63-11 38 0 70 19 32 19 42 50 4 9 7 11 3 2 15 2 19 0 19-10 0-5-1-9-17-62-66-103-49-41-98-42-26 0-46 17-20 17-39 34-19 17-38 17-44 0-79-60-6-8-17-8h-5-13q-6 6-6 9 0 15 58 86 39 45 132 130 93 85 115 108 12 16 7 16z"/><path id="C" d="M297 596q0 31 21 48 21 17 43 17 17 0 28-10 11-10 14-28 0-28-19-47-19-19-44-19-18 0-30 10-12 10-13 29zm-9-220q0 29-26 29-22 0-42-12-20-12-35-31-15-19-24-37-9-18-17-32l-7-14q-2-1-16-1h-14q-6 6-6 8 0 2 4 13 21 49 59 92 38 43 88 50 1 0 8 0 7 0 12 1 24-1 44-10 25-14 38-31 13-17 13-53v-16l-49-199Q267-67 264-75q-18-50-70-89-52-39-119-40-50 0-68 21-18 21-19 46 0 27 19 46 19 19 46 20 17 0 29-10 12-10 13-31 0-36-32-55 6-1 14-1 34 0 62 28 28 28 43 66l11 42q11 43 26 104 15 61 32 125 17 64 27 111 10 47 11 57 0 7-1 11z"/><path id="D" d="M580 385q0 21 19 39 19 18 42 19 18 0 33-18 15-18 16-57 0-29-19-115-15-56-27-92-12-36-35-81-23-45-55-68-32-23-72-23-44 0-78 16-34 16-49 43-1-1-3-4-41-55-100-55-26 0-50 6-24 6-47 19-23 13-37 39-14 26-14 63 0 54 34 146 34 92 35 117 0 1 0 2 0 9 0 12 0 3-4 7-4 4-11 4h-4q-23 0-42-19-19-19-30-41-11-22-17-42-6-20-8-22-2-2-16-2H27q-6 6-6 9 0 6 8 28 8 22 23 51 15 29 44 52 29 23 65 23 43 0 66-25 23-25 23-58 0-18-33-108-33-90-33-139 0-46 21-65 21-19 53-20 43 0 76 61l5 9v23q0 3 0 9 0 6 1 8 1 2 1 7 0 5 1 9 1 4 3 13 2 9 3 17 1 8 6 24 5 16 8 32 3 16 11 43 29 114 33 123 13 27 43 27 19 0 26-10 7-10 8-19 0-13-29-128-29-115-32-132-2-11-2-35v-7q0-15 3-29 3-14 19-29 16-15 45-16 71 0 113 122 9 23 20 65 11 42 12 60 0 33-13 52-13 19-26 32-13 13-13 28z"/><path id="E" d="M184 600q0 24 19 42 19 18 44 19 18 0 30-12 12-12 13-30 0-23-20-42-20-19-44-20-15 0-28 10-13 10-14 33zM21 287q0 8 9 31 9 23 24 51 15 28 44 51 29 23 60 22 39 0 65-23 26-23 27-62 0-17-14-56-14-39-40-105-26-66-42-113-5-22-5-32 0-25 17-25 9 0 19 3 10 3 23 14 13 11 27 35 14 24 25 59 3 12 5 14 2 2 17 2 20 0 20-10 0-8-9-31-9-23-25-51-16-28-45-50-29-22-62-22-32 0-59 21-27 21-28 64 0 17 5 32 5 15 43 114 38 101 44 121 6 20 7 39 0 24-17 24h-2q-30 0-55-33-25-33-38-84-1-1-2-3-1-2-1-3 0-1-2-2-2-1-3-1-1 0-4 0-3 0-8 0H27q-6 6-6 9z"/><path id="F" d="M56 347q0 13 14 20h637q15-8 15-20 0-11-14-19l-318-1H72q-16 5-16 20zm0-194q0 15 16 20h636q14-10 14-20 0-13-15-20H70q-14 7-14 20z"/><path id="G" d="M184-11q-68 0-110 45-42 45-43 113 0 100 73 186 73 86 170 97 1 1 140 1h138q1-1 3-2 2-1 4-2 2-1 3-2 1-1 3-3 2-2 2-2 0 0 2-4 2-4 1-4-1 0 1-5 2-5 1-6 0-44-65-44-7 0-17 0-10 0-14 1h-60l5-10q18-38 18-85 0-110-80-192-80-82-175-82zm177 289q0 80-85 80-124 0-161-174-1-4-1-6-8-37-8-61 0-50 25-70 25-20 57-21 54 0 99 47 29 30 47 80 18 50 22 80 4 30 5 45z"/></defs><g stroke="#eee" fill="#eee" transform="scale(1 -1)"><g transform="translate(467.5 754.2)"><use xlink:href="#A"/><g transform="translate(566)"><use xlink:href="#B"/><use xlink:href="#C" transform="matrix(.707 0 0 .707 498 -150)"/></g></g><g transform="translate(220 -686)"><use xlink:href="#A"/><g transform="translate(566)"><use xlink:href="#D"/><g transform="matrix(.707 0 0 .707 749 -150)"><use xlink:href="#E"/><use xlink:href="#C" x="345"/></g></g></g><path d="M120 220h2100.3v60H120z"/><use xlink:href="#F" x="2618.1"/><g transform="translate(3673.8)"><g transform="translate(354.2 676)"><use xlink:href="#A"/><use xlink:href="#G" x="566"/></g><g transform="translate(220 -686)"><use xlink:href="#A"/><g transform="translate(566)"><use xlink:href="#B"/><use xlink:href="#C" transform="matrix(.707 0 0 .707 498 -150)"/></g></g><path d="M120 220h1605.3v60H120z"/></g></g></svg>
