<svg xmlns="http://www.w3.org/2000/svg" xmlns:xlink="http://www.w3.org/1999/xlink" width="10.336" height="8" viewBox="0 -431 571 442" xmlns:v="https://vecta.io/nano"><defs><path id="A" d="M184-11q-68 0-110 45-42 45-43 113 0 100 73 186 73 86 170 97 1 1 140 1h138q1-1 3-2 2-1 4-2 2-1 3-2 1-1 3-3 2-2 2-2 0 0 2-4 2-4 1-4-1 0 1-5 2-5 1-6 0-44-65-44-7 0-17 0-10 0-14 1h-60l5-10q18-38 18-85 0-110-80-192-80-82-175-82zm177 289q0 80-85 80-124 0-161-174-1-4-1-6-8-37-8-61 0-50 25-70 25-20 57-21 54 0 99 47 29 30 47 80 18 50 22 80 4 30 5 45z"/></defs><use xlink:href="#A" transform="scale(1 -1)"/></svg>