<svg xmlns="http://www.w3.org/2000/svg" xmlns:xlink="http://www.w3.org/1999/xlink" width="42.488" height="17.272" viewBox="0 -943.3 2347.5 954.3" xmlns:v="https://vecta.io/nano"><defs><path id="A" d="M21 287q1 6 3 16 2 10 12 38 10 28 20 47 10 19 33 37 23 18 46 17 36 0 60-18 24-18 30-34 6-16 6-21 0-2 1-2l11 11q61 64 139 64 54 0 87-27 33-27 34-79 1-52-38-157-39-105-38-127 0-26 17-26 6 0 9 1 29 5 52 38 23 33 35 80 2 8 20 8 20 0 20-8 0-1-4-15-8-29-22-57-14-28-46-56-32-28-69-27-47 0-68 27-21 27-21 56 0 19 36 120 36 101 37 152 0 59-44 59h-5q-86 0-145-101l-7-12-33-134Q156 26 151 16q-13-27-43-27-13 0-21 6-8 6-11 12-3 6-2 10 0 13 38 163 38 150 40 163 1 5 1 23 0 39-24 39-38 0-63-100-6-20-6-21-2-6-19-6H27q-6 6-6 9z"/><path id="B" d="M94 250Q94 319 104 381T127 488T164 576T202 643T244 695T277 729T302 750H315H319Q333 750 333 741Q333 738 316 720T275 667T226 581T184 443T167 250T184 58T225 -81T274 -167T316 -220T333 -241Q333 -250 318 -250H315H302L274 -226Q180 -141 137 -14T94 250Z"/><path id="C" d="M117 59q0-33 25-33 37 0 63 105 6 20 10 21 2 1 10 1h4q9 0 12 0 3 0 5-2 2-2 2-7-1-6-3-16-2-10-11-38-9-28-20-47-11-19-31-37-20-18-46-17-36 0-67 22-31 22-32 74 0 12 1 17l65 258q63 255 63 263 0 3-1 5-1 2-4 4-3 2-5 2-2 0-8 1-6 1-8 1-2 0-9 1-7 1-10 0-10 0-13 0-3 0-8 1-5 1-6 3-1 2-1 6 0 2 2 14 5 19 11 21 6 2 72 6 15 1 34 2 19 1 30 3 11 2 11 1 12 0 12-8 0-11-73-300-73-289-75-303 0-2 0-8 0-6-1-10v-6z"/><path id="D" d="M84 237T84 250T98 270H679Q694 262 694 250T679 230H98Q84 237 84 250Z"/><path id="E" d="M213 578l-13-5q-14-5-40-10-26-5-58-7H83v46h19q47 2 87 15 40 13 56 24 16 11 28 22 2 3 12 3 9 0 17-6V361l1-300q7-7 12-9 5-2 24-4 19-2 62-2h26V0h-11q-21 3-159 3-136 0-157-3H88v46h26q22 0 38 0 16 0 25 1 9 1 16 3 7 2 8 2 1 0 6 5 5 5 6 4v517z"/><path id="F" d="M60 749l4 1q5 0 10 0h12l28-24q94-85 137-212 43-127 43-264 0-68-10-131-10-63-23-107-13-44-37-88-24-44-38-67-14-23-41-51-27-28-32-33-5-5-23-19-3-3-4-4H74q-8 0-11 0-3 0-5 3-2 3-3 9 1 1 11 13Q221-64 221 250q0 314-155 475-10 12-11 13 0 8 5 11z"/></defs><g stroke="#eee" fill="#eee" transform="scale(1 -1)"><use xlink:href="#A"/><g transform="matrix(.707 0 0 .707 633 413)"><use xlink:href="#B"/><use xlink:href="#C" x="389"/><use xlink:href="#D" x="687"/><use xlink:href="#E" x="1465"/><use xlink:href="#F" x="1965"/></g></g></svg>
