<svg xmlns="http://www.w3.org/2000/svg" xmlns:xlink="http://www.w3.org/1999/xlink" width="304.24" height="54.28" viewBox="0 -1749.5 16809.3 2999" xmlns:v="https://vecta.io/nano"><defs><path id="A" d="M195 609Q195 656 227 686T302 717Q319 716 351 709T407 697T433 690Q451 682 451 662Q451 644 438 628T403 612Q382 612 348 641T288 671T249 657T235 628Q235 584 334 463Q401 379 401 292Q401 169 340 80T205 -10H198Q127 -10 83 36T36 153Q36 286 151 382Q191 413 252 434Q252 435 245 449T230 481T214 521T201 566T195 609ZM112 130Q112 83 136 55T204 27Q233 27 256 51T291 111T309 178T316 232Q316 267 309 298T295 344T269 400L259 396Q215 381 183 342T137 256T118 179T112 130Z"/><path id="B" d="M297 596q0 31 21 48 21 17 43 17 17 0 28-10 11-10 14-28 0-28-19-47-19-19-44-19-18 0-30 10-12 10-13 29zm-9-220q0 29-26 29-22 0-42-12-20-12-35-31-15-19-24-37-9-18-17-32l-7-14q-2-1-16-1h-14q-6 6-6 8 0 2 4 13 21 49 59 92 38 43 88 50 1 0 8 0 7 0 12 1 24-1 44-10 25-14 38-31 13-17 13-53v-16l-49-199Q267-67 264-75q-18-50-70-89-52-39-119-40-50 0-68 21-18 21-19 46 0 27 19 46 19 19 46 20 17 0 29-10 12-10 13-31 0-36-32-55 6-1 14-1 34 0 62 28 28 28 43 66l11 42q11 43 26 104 15 61 32 125 17 64 27 111 10 47 11 57 0 7-1 11z"/><path id="C" d="M56 347q0 13 14 20h637q15-8 15-20 0-11-14-19l-318-1H72q-16 5-16 20zm0-194q0 15 16 20h636q14-10 14-20 0-13-15-20H70q-14 7-14 20z"/><path id="D" d="M202 508q-23 0-33 12-10 12-11 27 0 10 6 30 6 20 21 47 15 27 45 51 30 24 71 35l32 5h12q33 0 39-1 63-11 105-53 42-42 60-93 18-51 17-111 0-95-47-217-47-122-117-187-81-75-179-75-100 0-150 78-31 46-31 92v11q0 117 87 211 87 94 193 95 61 0 92-31 31-31 41-67l3 11q20 83 20 137 0 88-41 124-41 36-93 37-78 0-121-64 41-6 41-40 0-25-18-44-18-19-44-20zm228-202q0 66-29 94-29 28-68 28-63 0-111-46-25-28-39-59-14-31-33-102-18-72-18-105 0-95 100-95 12 0 18 1 77 13 124 90 15 25 35 84 20 59 21 110z"/><path id="E" d="M228 637q-34 0-36 4-1 2-1 8 0 24 11 33 2 1 15 1 54-3 127-3 141 0 162 3h12q6-6 6-9 0-3-2-18-5-15-9-19h-38q-69-1-81-9-7-4-14-28-7-24-67-264-16-65-34-138-18-73-27-110l-9-36q0-4 9-4 9 0 59-2h17q32 0 51 1 19 1 49 7 30 6 50 18 20 12 44 34 24 22 42 55 16 30 30 67 14 37 17 42 5 3 17 3h13q6-9 6-11 0-2-20-59-20-57-44-120-24-63-26-74-2-5-4-6-2-1-16-3-14-2-43-1-11 0-76 0-65 0-124 1H116Q32 0 32 10q0 7 2 14 5 19 10 21 4 1 15 1h6q27 0 60 3 14 3 19 12 3 4 72 278 69 274 69 289 0 7-57 9z"/><path id="F" d="M33 157q0 101 76 192 76 91 171 92 51 0 90-49 16 30 46 30 13 0 23-8 10-8 10-20 0-13-37-160-37-147-38-166 0-25 7-33 7-8 21-9 9 1 20 9 21 20 41 96 6 20 10 21 2 1 10 1h4q19 0 19-9 0-6-5-27-5-21-20-54-15-33-32-50-13-13-32-21-8-2-24-2-34 0-57 15-23 15-30 31l-6 15q-1 1-4-1-2-2-4-4-59-56-120-56-55 0-97 40-42 40-42 127zm318 171q0 6-5 22-5 16-23 35-18 19-46 20-35 0-67-31-32-31-50-81-29-79-41-164 0-3 0-11 0-8-1-12 0-45 18-62 18-17 43-18 38 0 75 33 37 33 44 51 2 4 27 107 25 103 26 111z"/><path id="G" d="M347 338q-10 0-53 11-43 11-63 11-20 0-34-4-14-4-23-10-9-6-12-11-3-5-7-11l-2-4q-3-3-15-3-21 0-21 8 0 5 3 14 13 39 43 67 30 28 66 34 12 2 17 2 25 0 45-17 20-17 38-33 18-16 38-17 22 0 44 33 22 33 23 33 1 1 15 1h13q6-6 6-8 0-4-5-14-5-10-14-21-9-11-17-22-8-11-14-19l-7-9q-43-51-136-135-93-84-115-108l-12-12 15-1q22 0 64-11 42-11 63-11 38 0 70 19 32 19 42 50 4 9 7 11 3 2 15 2 19 0 19-10 0-5-1-9-17-62-66-103-49-41-98-42-26 0-46 17-20 17-39 34-19 17-38 17-44 0-79-60-6-8-17-8h-5-13q-6 6-6 9 0 15 58 86 39 45 132 130 93 85 115 108 12 16 7 16z"/><path id="H" d="M758-1237q0 0 0-3 0-3-6-9h-16q-18 0-19 1-6 3-45 49Q237-706 237 251q0 957 435 1449 25 30 44 49 2 1 19 1h17q6-6 6-9 0-4-18-28-18-24-51-69-33-45-70-107-37-62-79-157-42-95-77-204-115-374-115-925 0-493 93-850 93-357 303-619 14-19 14-22z"/><path id="I" d="M60 948q3 2 605 2h602l58-135q59-138 63-146h-40l-7 14q-21 41-56 78-50 48-111 77-61 29-141 43-80 14-151 17-71 3-183 4H574h-31-292l8-11q463-633 465-639 1-2 0-6-3-3-264-302L196-356q0-1 211-1 52 0 141 0 89 0 128-1 136 0 220 5 84 5 167 21 83 16 141 49 58 33 103 87 21 26 41 72h40q0-1-7-21-7-20-25-65-18-45-31-84l-58-155-601-1q-602 0-605 2-6 2-6 9 0 2 2 6l533 610q0 1-33 45-33 44-105 144-72 100-130 178L56 909l-1 15q0 21 5 24z"/><path id="J" d="M121 647q0 10 4 23 4 13 12 13 1 0 72 5 71 5 73 6 12 0 12-8 0-7-50-209-50-198-50-205 19 10 29 19 24 18 69 63 45 45 70 61 40 27 76 27 30 0 47-19 17-19 18-54 0-25-7-42-7-17-19-25-12-8-21-11-9-3-18-3-20 0-32 11-12 11-12 29 0 25 16 41 16 16 32 21l16 3q-12 12-24 12h-4q-32-3-63-25-31-22-73-64-42-42-66-61 2-1 15-3 13-2 24-6 11-4 26-8 15-4 27-14 12-10 22-18 10-8 17-26 7-18 6-33 0-17-5-41-5-24-6-40 0-40 27-40 48 0 78 119 2 8 20 8h4q16 0 16-9 0-5-3-14Q455-11 378-11q-45 0-73 26-28 26-28 75 0 18 3 31 3 13 3 24 0 22-14 38-14 16-35 23-21 7-34 11-13 4-18 3h-2q-12-42-21-81-9-39-14-58-5-19-9-37-4-18-7-24-3-6-7-13-4-7-11-9-13-9-28-9-17 0-26 10-9 10-9 17 0 10 37 160 37 150 73 295l37 145q1 13-7 16-8 3-39 5h-5q-10 0-13 0-3 0-7 3-4 3-3 7z"/><path id="K" d="M33 1741q0 9 18 9h9 5q8 0 16-7 8-7 38-43 435-493 435-1449 0-958-435-1450-43-51-53-51-1 0-4 0-3 0-6 1-1 0-3 0-2 0-4-1-16 0-16 11 0 3 17 25 17 22 48 64 31 42 65 98 34 56 75 142 41 86 73 183 132 392 132 978 0 151-7 281-7 130-31 299-24 169-66 311-42 142-115 296-73 154-174 278-17 21-17 25z"/><path id="L" d="M184-11q-68 0-110 45-42 45-43 113 0 100 73 186 73 86 170 97 1 1 140 1h138q1-1 3-2 2-1 4-2 2-1 3-2 1-1 3-3 2-2 2-2 0 0 2-4 2-4 1-4-1 0 1-5 2-5 1-6 0-44-65-44-7 0-17 0-10 0-14 1h-60l5-10q18-38 18-85 0-110-80-192-80-82-175-82zm177 289q0 80-85 80-124 0-161-174-1-4-1-6-8-37-8-61 0-50 25-70 25-20 57-21 54 0 99 47 29 30 47 80 18 50 22 80 4 30 5 45z"/><path id="M" d="M79 43q-6 0-27 6-21 6-22 12 0 7 55 232 55 225 61 235 15 32 52 32 20 0 42-15 22-15 22-44 0-5-2-15-1-7-87-223Q87 47 84 45q-3-2-5-2z"/><path id="N" d="M94 250Q94 319 104 381T127 488T164 576T202 643T244 695T277 729T302 750H315H319Q333 750 333 741Q333 738 316 720T275 667T226 581T184 443T167 250T184 58T225 -81T274 -167T316 -220T333 -241Q333 -250 318 -250H315H302L274 -226Q180 -141 137 -14T94 250Z"/><path id="O" d="M60 749l4 1q5 0 10 0h12l28-24q94-85 137-212 43-127 43-264 0-68-10-131-10-63-23-107-13-44-37-88-24-44-38-67-14-23-41-51-27-28-32-33-5-5-23-19-3-3-4-4H74q-8 0-11 0-3 0-5 3-2 3-3 9 1 1 11 13Q221-64 221 250q0 314-155 475-10 12-11 13 0 8 5 11z"/></defs><g transform="scale(1 -1)"><use xlink:href="#A"/><use xlink:href="#B" transform="matrix(.707 0 0 .707 477 -150)"/><use xlink:href="#C" x="1096.1"/><g transform="translate(2151.9)"><g transform="translate(331.2 676)"><use xlink:href="#D"/><use xlink:href="#E" x="566"/></g><g transform="translate(220 -686)"><use xlink:href="#D"/><g transform="translate(566)"><use xlink:href="#F"/><use xlink:href="#B" transform="matrix(.707 0 0 .707 562 -150)"/></g></g><path d="M120 220h1669.3v60H120z"/></g><g transform="translate(4061.2)"><g transform="translate(220 754.2)"><use xlink:href="#D"/><g transform="translate(566)"><use xlink:href="#F"/><use xlink:href="#B" transform="matrix(.707 0 0 .707 562 -150)"/></g></g><g transform="translate(252 -686)"><use xlink:href="#D"/><g transform="translate(566)"><use xlink:href="#G"/><use xlink:href="#B" transform="matrix(.707 0 0 .707 498 -150)"/></g></g><path d="M120 220h1669.3v60H120z"/></g><use xlink:href="#C" x="6248.3"/><g transform="translate(7304.1)"><use xlink:href="#H" y="-.5"/><g transform="translate(792)"><use xlink:href="#I"/><use xlink:href="#J" transform="matrix(.707 0 0 .707 537.8 -1107.7)"/></g><g transform="translate(2402.7)"><g transform="translate(337.7 676)"><use xlink:href="#D"/><use xlink:href="#E" x="566"/></g><g transform="translate(220 -686)"><use xlink:href="#D"/><g transform="translate(566)"><use xlink:href="#G"/><use xlink:href="#J" transform="matrix(.707 0 0 .707 498 -150)"/></g></g><path d="M120 220h1682.4v60H120z"/></g><g transform="translate(4325.1)"><g transform="translate(220 676)"><use xlink:href="#D"/><g transform="translate(566)"><use xlink:href="#G"/><use xlink:href="#J" transform="matrix(.707 0 0 .707 498 -150)"/></g></g><g transform="translate(226.5 -686)"><use xlink:href="#D"/><g transform="translate(566)"><use xlink:href="#F"/><use xlink:href="#B" transform="matrix(.707 0 0 .707 562 -150)"/></g></g><path d="M120 220h1682.4v60H120z"/></g><use xlink:href="#K" x="6247.5" y="-.5"/></g><g transform="translate(14343.6)"><use xlink:href="#L"/><use xlink:href="#M" transform="matrix(.707 0 0 .707 604 413)"/></g><use xlink:href="#N" x="15192"/><g transform="translate(15581)"><use xlink:href="#G"/><use xlink:href="#B" transform="matrix(.707 0 0 .707 498 -150)"/></g><use xlink:href="#O" x="16420.3"/></g></svg>