<svg xmlns="http://www.w3.org/2000/svg" xmlns:xlink="http://www.w3.org/1999/xlink" width="28.232" height="27.128" viewBox="0 -1060.7 1559.8 1498.8" xmlns:v="https://vecta.io/nano"><defs><path id="A" d="M580 385q0 21 19 39 19 18 42 19 18 0 33-18 15-18 16-57 0-29-19-115-15-56-27-92-12-36-35-81-23-45-55-68-32-23-72-23-44 0-78 16-34 16-49 43-1-1-3-4-41-55-100-55-26 0-50 6-24 6-47 19-23 13-37 39-14 26-14 63 0 54 34 146 34 92 35 117 0 1 0 2 0 9 0 12 0 3-4 7-4 4-11 4h-4q-23 0-42-19-19-19-30-41-11-22-17-42-6-20-8-22-2-2-16-2H27q-6 6-6 9 0 6 8 28 8 22 23 51 15 29 44 52 29 23 65 23 43 0 66-25 23-25 23-58 0-18-33-108-33-90-33-139 0-46 21-65 21-19 53-20 43 0 76 61l5 9v23q0 3 0 9 0 6 1 8 1 2 1 7 0 5 1 9 1 4 3 13 2 9 3 17 1 8 6 24 5 16 8 32 3 16 11 43 29 114 33 123 13 27 43 27 19 0 26-10 7-10 8-19 0-13-29-128-29-115-32-132-2-11-2-35v-7q0-15 3-29 3-14 19-29 16-15 45-16 71 0 113 122 9 23 20 65 11 42 12 60 0 33-13 52-13 19-26 32-13 13-13 28z"/><path id="B" d="M94 250Q94 319 104 381T127 488T164 576T202 643T244 695T277 729T302 750H315H319Q333 750 333 741Q333 738 316 720T275 667T226 581T184 443T167 250T184 58T225 -81T274 -167T316 -220T333 -241Q333 -250 318 -250H315H302L274 -226Q180 -141 137 -14T94 250Z"/><path id="C" d="M117 59q0-33 25-33 37 0 63 105 6 20 10 21 2 1 10 1h4q9 0 12 0 3 0 5-2 2-2 2-7-1-6-3-16-2-10-11-38-9-28-20-47-11-19-31-37-20-18-46-17-36 0-67 22-31 22-32 74 0 12 1 17l65 258q63 255 63 263 0 3-1 5-1 2-4 4-3 2-5 2-2 0-8 1-6 1-8 1-2 0-9 1-7 1-10 0-10 0-13 0-3 0-8 1-5 1-6 3-1 2-1 6 0 2 2 14 5 19 11 21 6 2 72 6 15 1 34 2 19 1 30 3 11 2 11 1 12 0 12-8 0-11-73-300-73-289-75-303 0-2 0-8 0-6-1-10v-6z"/><path id="D" d="M60 749l4 1q5 0 10 0h12l28-24q94-85 137-212 43-127 43-264 0-68-10-131-10-63-23-107-13-44-37-88-24-44-38-67-14-23-41-51-27-28-32-33-5-5-23-19-3-3-4-4H74q-8 0-11 0-3 0-5 3-2 3-3 9 1 1 11 13Q221-64 221 250q0 314-155 475-10 12-11 13 0 8 5 11z"/><path id="E" d="M184 600q0 24 19 42 19 18 44 19 18 0 30-12 12-12 13-30 0-23-20-42-20-19-44-20-15 0-28 10-13 10-14 33zM21 287q0 8 9 31 9 23 24 51 15 28 44 51 29 23 60 22 39 0 65-23 26-23 27-62 0-17-14-56-14-39-40-105-26-66-42-113-5-22-5-32 0-25 17-25 9 0 19 3 10 3 23 14 13 11 27 35 14 24 25 59 3 12 5 14 2 2 17 2 20 0 20-10 0-8-9-31-9-23-25-51-16-28-45-50-29-22-62-22-32 0-59 21-27 21-28 64 0 17 5 32 5 15 43 114 38 101 44 121 6 20 7 39 0 24-17 24h-2q-30 0-55-33-25-33-38-84-1-1-2-3-1-2-1-3 0-1-2-2-2-1-3-1-1 0-4 0-3 0-8 0H27q-6 6-6 9z"/><path id="F" d="M297 596q0 31 21 48 21 17 43 17 17 0 28-10 11-10 14-28 0-28-19-47-19-19-44-19-18 0-30 10-12 10-13 29zm-9-220q0 29-26 29-22 0-42-12-20-12-35-31-15-19-24-37-9-18-17-32l-7-14q-2-1-16-1h-14q-6 6-6 8 0 2 4 13 21 49 59 92 38 43 88 50 1 0 8 0 7 0 12 1 24-1 44-10 25-14 38-31 13-17 13-53v-16l-49-199Q267-67 264-75q-18-50-70-89-52-39-119-40-50 0-68 21-18 21-19 46 0 27 19 46 19 19 46 20 17 0 29-10 12-10 13-31 0-36-32-55 6-1 14-1 34 0 62 28 28 28 43 66l11 42q11 43 26 104 15 61 32 125 17 64 27 111 10 47 11 57 0 7-1 11z"/></defs><g transform="scale(1 -1)"><use xlink:href="#A"/><g transform="matrix(.707 0 0 .707 749 530.4)"><use xlink:href="#B"/><use xlink:href="#C" x="389"/><use xlink:href="#D" x="687"/></g><g transform="matrix(.707 0 0 .707 749 -293.8)"><use xlink:href="#E"/><use xlink:href="#F" x="345"/></g></g></svg>
