<svg xmlns="http://www.w3.org/2000/svg" xmlns:xlink="http://www.w3.org/1999/xlink" width="152.984" height="50.832" viewBox="0 -1562.5 8452.5 2808.5" xmlns:v="https://vecta.io/nano"><defs><path id="A" d="M492 213q-20 0-20 13 0 4 5 24 5 20 5 35 0 31-21 38-21 7-97 7h-52q-1-2-35-138-34-136-34-140 0-4 11-4 11 0 80-2 94 0 124 2 30 2 60 13 49 16 81 56 32 40 71 131 10 22 13 24 7 2 15 2 20 0 20-13Q613 7 608 2q-3-2-286-2H133Q31 0 31 11q0 2 3 14 4 16 8 18 4 2 23 3 27 0 60 3 14 3 19 12 2 5 71 281 69 276 70 280 0 7-4 7-8 3-53 5h-31q-6 6-6 8 0 2 2 17 4 17 10 21h554q7-4 7-11 0-5-13-112-13-107-14-110-2-7-20-7h-12q-7 5-7 13l3 23q3 24 3 52 0 30-7 50-7 20-19 31-12 11-35 16-23 5-47 7-24 2-64 2h-47q-88-1-93-3-4-2-6-9-1-3-31-123-30-120-31-122 23-1 48-1h26q66 0 91 15 25 15 45 81 4 16 6 18 2 2 17 3 5 0 8 0 3 0 5-1 2-1 2-1 0 0 2-4 2-4 3-4l-33-132q-33-133-36-135-3-3-16-3z"/><path id="B" d="M56 347q0 13 14 20h637q15-8 15-20 0-11-14-19l-318-1H72q-16 5-16 20zm0-194q0 15 16 20h636q14-10 14-20 0-13-15-20H70q-14 7-14 20z"/><path id="C" d="M213 578l-13-5q-14-5-40-10-26-5-58-7H83v46h19q47 2 87 15 40 13 56 24 16 11 28 22 2 3 12 3 9 0 17-6V361l1-300q7-7 12-9 5-2 24-4 19-2 62-2h26V0h-11q-21 3-159 3-136 0-157-3H88v46h26q22 0 38 0 16 0 25 1 9 1 16 3 7 2 8 2 1 0 6 5 5 5 6 4v517z"/><path id="D" d="M21 287q1 6 3 16 2 10 12 38 10 28 20 47 10 19 33 37 23 18 46 17 36 0 60-18 24-18 30-34 6-16 6-21 0-2 1-2l11 11q61 64 139 64 54 0 87-27 33-27 34-79 1-52-38-157-39-105-38-127 0-26 17-26 6 0 9 1 29 5 52 38 23 33 35 80 2 8 20 8 20 0 20-8 0-1-4-15-8-29-22-57-14-28-46-56-32-28-69-27-47 0-68 27-21 27-21 56 0 19 36 120 36 101 37 152 0 59-44 59h-5q-86 0-145-101l-7-12-33-134Q156 26 151 16q-13-27-43-27-13 0-21 6-8 6-11 12-3 6-2 10 0 13 38 163 38 150 40 163 1 5 1 23 0 39-24 39-38 0-63-100-6-20-6-21-2-6-19-6H27q-6 6-6 9z"/><path id="E" d="M60 948q3 2 605 2h602l58-135q59-138 63-146h-40l-7 14q-21 41-56 78-50 48-111 77-61 29-141 43-80 14-151 17-71 3-183 4H574h-31-292l8-11q463-633 465-639 1-2 0-6-3-3-264-302L196-356q0-1 211-1 52 0 141 0 89 0 128-1 136 0 220 5 84 5 167 21 83 16 141 49 58 33 103 87 21 26 41 72h40q0-1-7-21-7-20-25-65-18-45-31-84l-58-155-601-1q-602 0-605 2-6 2-6 9 0 2 2 6l533 610q0 1-33 45-33 44-105 144-72 100-130 178L56 909l-1 15q0 21 5 24z"/><path id="F" d="M184 600q0 24 19 42 19 18 44 19 18 0 30-12 12-12 13-30 0-23-20-42-20-19-44-20-15 0-28 10-13 10-14 33zM21 287q0 8 9 31 9 23 24 51 15 28 44 51 29 23 60 22 39 0 65-23 26-23 27-62 0-17-14-56-14-39-40-105-26-66-42-113-5-22-5-32 0-25 17-25 9 0 19 3 10 3 23 14 13 11 27 35 14 24 25 59 3 12 5 14 2 2 17 2 20 0 20-10 0-8-9-31-9-23-25-51-16-28-45-50-29-22-62-22-32 0-59 21-27 21-28 64 0 17 5 32 5 15 43 114 38 101 44 121 6 20 7 39 0 24-17 24h-2q-30 0-55-33-25-33-38-84-1-1-2-3-1-2-1-3 0-1-2-2-2-1-3-1-1 0-4 0-3 0-8 0H27q-6 6-6 9z"/><path id="G" d="M228 637q-34 0-36 4-1 2-1 8 0 24 11 33 2 1 15 1 54-3 127-3 141 0 162 3h12q6-6 6-9 0-3-2-18-5-15-9-19h-38q-69-1-81-9-7-4-14-28-7-24-67-264-16-65-34-138-18-73-27-110l-9-36q0-4 9-4 9 0 59-2h17q32 0 51 1 19 1 49 7 30 6 50 18 20 12 44 34 24 22 42 55 16 30 30 67 14 37 17 42 5 3 17 3h13q6-9 6-11 0-2-20-59-20-57-44-120-24-63-26-74-2-5-4-6-2-1-16-3-14-2-43-1-11 0-76 0-65 0-124 1H116Q32 0 32 10q0 7 2 14 5 19 10 21 4 1 15 1h6q27 0 60 3 14 3 19 12 3 4 72 278 69 274 69 289 0 7-57 9z"/><path id="H" d="M94 250Q94 319 104 381T127 488T164 576T202 643T244 695T277 729T302 750H315H319Q333 750 333 741Q333 738 316 720T275 667T226 581T184 443T167 250T184 58T225 -81T274 -167T316 -220T333 -241Q333 -250 318 -250H315H302L274 -226Q180 -141 137 -14T94 250Z"/><path id="I" d="M21 287q0 14 15 48 15 34 48 71 33 37 74 36 41 0 66-23 25-23 26-64-2-19-3-21 0-3-16-46-16-43-33-97-17-54-16-86 0-43 14-60 14-17 42-18 23 0 43 11 20 11 31 23 11 12 27 33 0 1 5 20 5 19 14 59 9 40 19 74 38 150 42 157 13 27 43 27 13 0 21-7 8-7 11-12 3-5 2-9 0-13-49-210Q398-4 391-23q-28-83-97-132-69-49-138-50-45 0-79 22-34 22-34 66 0 22 7 37 7 15 19 22 12 7 20 10 8 3 17 3 44 0 44-42 0-20-12-35-12-15-23-20-11-5-13-5l-3-1q2-5 19-12 17-7 34-7h8q17 0 26 2 33 9 61 38 28 29 43 62 15 33 23 56 8 23 8 30l-6-4q-6-4-19-11-13-7-26-12-20-5-39-5-46 0-81 22-35 22-46 71-1 7-1 31 0 57 35 149 35 92 35 117 0 1 0 2 0 9 0 12 0 3-4 7-4 4-11 4h-4q-23 0-42-19-19-19-30-41-11-22-17-42-6-20-8-22-2-2-16-2H27q-6 6-6 9z"/><path id="J" d="M78 35T78 60T94 103T137 121Q165 121 187 96T210 8Q210 -27 201 -60T180 -117T154 -158T130 -185T117 -194Q113 -194 104 -185T95 -172Q95 -168 106 -156T131 -126T157 -76T173 -3V9L172 8Q170 7 167 6T161 3T152 1T140 0Q113 0 96 17Z"/><path id="K" d="M112 560l137 134 8-8q130-124 130-126l-26-29q-2 1-58 50l-53 46-55-47q-13-11-26-23-13-12-21-19l-8-6q-2-2-15 14l-13 14z"/><path id="L" d="M60 749l4 1q5 0 10 0h12l28-24q94-85 137-212 43-127 43-264 0-68-10-131-10-63-23-107-13-44-37-88-24-44-38-67-14-23-41-51-27-28-32-33-5-5-23-19-3-3-4-4H74q-8 0-11 0-3 0-5 3-2 3-3 9 1 1 11 13Q221-64 221 250q0 314-155 475-10 12-11 13 0 8 5 11z"/></defs><g stroke="#eee" fill="#eee" transform="scale(1 -1)"><use xlink:href="#A"/><use xlink:href="#B" x="1041.8"/><g transform="translate(2097.6)"><use xlink:href="#C" x="270" y="676"/><use xlink:href="#D" x="220" y="-686"/><path d="M120 220h800v60H120z"/></g><g transform="translate(3304.2)"><use xlink:href="#E"/><g transform="matrix(.707 0 0 .707 148.2 -1087.9)"><use xlink:href="#F"/><use xlink:href="#B" x="345"/><use xlink:href="#C" x="1123"/></g><use xlink:href="#D" transform="matrix(.707 0 0 .707 509.9 1150)"/></g><use xlink:href="#G" x="4914.9"/><use xlink:href="#H" x="5595.9"/><g transform="translate(5984.9)"><use xlink:href="#I"/><use xlink:href="#F" transform="matrix(.707 0 0 .707 523 -150)"/></g><use xlink:href="#J" x="6801.8"/><g transform="translate(7246.5)"><use xlink:href="#I"/><use xlink:href="#F" transform="matrix(.707 0 0 .707 523 -150)"/><use xlink:href="#K" x="158.5" y="16"/></g><use xlink:href="#L" x="8063.5"/></g></svg>
