<svg xmlns="http://www.w3.org/2000/svg" xmlns:xlink="http://www.w3.org/1999/xlink" width="32.904" height="40.448" viewBox="0 -1391 1818 2234.8" xmlns:v="https://vecta.io/nano"><defs><path id="A" d="M202 508q-23 0-33 12-10 12-11 27 0 10 6 30 6 20 21 47 15 27 45 51 30 24 71 35l32 5h12q33 0 39-1 63-11 105-53 42-42 60-93 18-51 17-111 0-95-47-217-47-122-117-187-81-75-179-75-100 0-150 78-31 46-31 92v11q0 117 87 211 87 94 193 95 61 0 92-31 31-31 41-67l3 11q20 83 20 137 0 88-41 124-41 36-93 37-78 0-121-64 41-6 41-40 0-25-18-44-18-19-44-20zm228-202q0 66-29 94-29 28-68 28-63 0-111-46-25-28-39-59-14-31-33-102-18-72-18-105 0-95 100-95 12 0 18 1 77 13 124 90 15 25 35 84 20 59 21 110z"/><path id="B" d="M228 637q-34 0-36 4-1 2-1 8 0 24 11 33 2 1 15 1 54-3 127-3 141 0 162 3h12q6-6 6-9 0-3-2-18-5-15-9-19h-38q-69-1-81-9-7-4-14-28-7-24-67-264-16-65-34-138-18-73-27-110l-9-36q0-4 9-4 9 0 59-2h17q32 0 51 1 19 1 49 7 30 6 50 18 20 12 44 34 24 22 42 55 16 30 30 67 14 37 17 42 5 3 17 3h13q6-9 6-11 0-2-20-59-20-57-44-120-24-63-26-74-2-5-4-6-2-1-16-3-14-2-43-1-11 0-76 0-65 0-124 1H116Q32 0 32 10q0 7 2 14 5 19 10 21 4 1 15 1h6q27 0 60 3 14 3 19 12 3 4 72 278 69 274 69 289 0 7-57 9z"/><path id="C" d="M201 -11Q126 -11 80 38T34 156Q34 221 64 279T146 380Q222 441 301 441Q333 441 341 440Q354 437 367 433T402 417T438 387T464 338T476 268Q476 161 390 75T201 -11ZM121 120Q121 70 147 48T206 26Q250 26 289 58T351 142Q360 163 374 216T388 308Q388 352 370 375Q346 405 306 405Q243 405 195 347Q158 303 140 230T121 120Z"/><path id="D" d="M184 600q0 24 19 42 19 18 44 19 18 0 30-12 12-12 13-30 0-23-20-42-20-19-44-20-15 0-28 10-13 10-14 33zM21 287q0 8 9 31 9 23 24 51 15 28 44 51 29 23 60 22 39 0 65-23 26-23 27-62 0-17-14-56-14-39-40-105-26-66-42-113-5-22-5-32 0-25 17-25 9 0 19 3 10 3 23 14 13 11 27 35 14 24 25 59 3 12 5 14 2 2 17 2 20 0 20-10 0-8-9-31-9-23-25-51-16-28-45-50-29-22-62-22-32 0-59 21-27 21-28 64 0 17 5 32 5 15 43 114 38 101 44 121 6 20 7 39 0 24-17 24h-2q-30 0-55-33-25-33-38-84-1-1-2-3-1-2-1-3 0-1-2-2-2-1-3-1-1 0-4 0-3 0-8 0H27q-6 6-6 9z"/></defs><g  stroke="#eee" fill="#eee"  transform="scale(1 -1)"><g transform="translate(285.5 676)"><use xlink:href="#A"/><use xlink:href="#B" x="566"/></g><g transform="translate(220 -686)"><use xlink:href="#A"/><g transform="translate(566)"><use xlink:href="#C"/><use xlink:href="#D" transform="matrix(.707 0 0 .707 518 -150)"/></g></g><path d="M120 220h1578v60H120z"/></g></svg>