<svg xmlns="http://www.w3.org/2000/svg" xmlns:xlink="http://www.w3.org/1999/xlink" width="75.136" height="40.448" viewBox="0 -1391 4151.4 2234.8" xmlns:v="https://vecta.io/nano"><defs><path id="A" d="M202 508q-23 0-33 12-10 12-11 27 0 10 6 30 6 20 21 47 15 27 45 51 30 24 71 35l32 5h12q33 0 39-1 63-11 105-53 42-42 60-93 18-51 17-111 0-95-47-217-47-122-117-187-81-75-179-75-100 0-150 78-31 46-31 92v11q0 117 87 211 87 94 193 95 61 0 92-31 31-31 41-67l3 11q20 83 20 137 0 88-41 124-41 36-93 37-78 0-121-64 41-6 41-40 0-25-18-44-18-19-44-20zm228-202q0 66-29 94-29 28-68 28-63 0-111-46-25-28-39-59-14-31-33-102-18-72-18-105 0-95 100-95 12 0 18 1 77 13 124 90 15 25 35 84 20 59 21 110z"/><path id="B" d="M228 637q-34 0-36 4-1 2-1 8 0 24 11 33 2 1 15 1 54-3 127-3 141 0 162 3h12q6-6 6-9 0-3-2-18-5-15-9-19h-38q-69-1-81-9-7-4-14-28-7-24-67-264-16-65-34-138-18-73-27-110l-9-36q0-4 9-4 9 0 59-2h17q32 0 51 1 19 1 49 7 30 6 50 18 20 12 44 34 24 22 42 55 16 30 30 67 14 37 17 42 5 3 17 3h13q6-9 6-11 0-2-20-59-20-57-44-120-24-63-26-74-2-5-4-6-2-1-16-3-14-2-43-1-11 0-76 0-65 0-124 1H116Q32 0 32 10q0 7 2 14 5 19 10 21 4 1 15 1h6q27 0 60 3 14 3 19 12 3 4 72 278 69 274 69 289 0 7-57 9z"/><path id="C" d="M347 338q-10 0-53 11-43 11-63 11-20 0-34-4-14-4-23-10-9-6-12-11-3-5-7-11l-2-4q-3-3-15-3-21 0-21 8 0 5 3 14 13 39 43 67 30 28 66 34 12 2 17 2 25 0 45-17 20-17 38-33 18-16 38-17 22 0 44 33 22 33 23 33 1 1 15 1h13q6-6 6-8 0-4-5-14-5-10-14-21-9-11-17-22-8-11-14-19l-7-9q-43-51-136-135-93-84-115-108l-12-12 15-1q22 0 64-11 42-11 63-11 38 0 70 19 32 19 42 50 4 9 7 11 3 2 15 2 19 0 19-10 0-5-1-9-17-62-66-103-49-41-98-42-26 0-46 17-20 17-39 34-19 17-38 17-44 0-79-60-6-8-17-8h-5-13q-6 6-6 9 0 15 58 86 39 45 132 130 93 85 115 108 12 16 7 16z"/><path id="D" d="M121 647q0 10 4 23 4 13 12 13 1 0 72 5 71 5 73 6 12 0 12-8 0-7-50-209-50-198-50-205 19 10 29 19 24 18 69 63 45 45 70 61 40 27 76 27 30 0 47-19 17-19 18-54 0-25-7-42-7-17-19-25-12-8-21-11-9-3-18-3-20 0-32 11-12 11-12 29 0 25 16 41 16 16 32 21l16 3q-12 12-24 12h-4q-32-3-63-25-31-22-73-64-42-42-66-61 2-1 15-3 13-2 24-6 11-4 26-8 15-4 27-14 12-10 22-18 10-8 17-26 7-18 6-33 0-17-5-41-5-24-6-40 0-40 27-40 48 0 78 119 2 8 20 8h4q16 0 16-9 0-5-3-14Q455-11 378-11q-45 0-73 26-28 26-28 75 0 18 3 31 3 13 3 24 0 22-14 38-14 16-35 23-21 7-34 11-13 4-18 3h-2q-12-42-21-81-9-39-14-58-5-19-9-37-4-18-7-24-3-6-7-13-4-7-11-9-13-9-28-9-17 0-26 10-9 10-9 17 0 10 37 160 37 150 73 295l37 145q1 13-7 16-8 3-39 5h-5q-10 0-13 0-3 0-7 3-4 3-3 7z"/><path id="E" d="M56 347q0 13 14 20h637q15-8 15-20 0-11-14-19l-318-1H72q-16 5-16 20zm0-194q0 15 16 20h636q14-10 14-20 0-13-15-20H70q-14 7-14 20z"/><path id="F" d="M195 609Q195 656 227 686T302 717Q319 716 351 709T407 697T433 690Q451 682 451 662Q451 644 438 628T403 612Q382 612 348 641T288 671T249 657T235 628Q235 584 334 463Q401 379 401 292Q401 169 340 80T205 -10H198Q127 -10 83 36T36 153Q36 286 151 382Q191 413 252 434Q252 435 245 449T230 481T214 521T201 566T195 609ZM112 130Q112 83 136 55T204 27Q233 27 256 51T291 111T309 178T316 232Q316 267 309 298T295 344T269 400L259 396Q215 381 183 342T137 256T118 179T112 130Z"/></defs><g transform="scale(1 -1)"><g transform="translate(337.7 676)"><use xlink:href="#A"/><use xlink:href="#B" x="566"/></g><g transform="translate(220 -686)"><use xlink:href="#A"/><g transform="translate(566)"><use xlink:href="#C"/><use xlink:href="#D" transform="matrix(.707 0 0 .707 498 -150)"/></g></g><path d="M120 220h1682.4v60H120z"/><use xlink:href="#E" x="2200.2"/><g transform="translate(3256)"><use xlink:href="#F"/><use xlink:href="#D" transform="matrix(.707 0 0 .707 477 -150)"/></g></g></svg>