<svg xmlns="http://www.w3.org/2000/svg" xmlns:xlink="http://www.w3.org/1999/xlink" width="41.984" height="24.656" viewBox="0 -1060.7 2319.5 1362.3" xmlns:v="https://vecta.io/nano"><defs><path id="A" d="M52 289q7 42 54 97 47 55 116 56 35 0 64-18 29-18 43-45 42 63 101 63 37 0 64-22 27-22 28-59 0-29-14-47-14-18-27-22-13-4-23-4-19 0-31 11-12 11-12 29 0 46 50 63-11 13-40 13-13 0-19-2-38-16-56-66-60-221-60-258 0-28 16-40 16-12 35-12 37 0 73 33 36 33 49 81 3 10 6 11 3 1 16 2h4q15 0 15-8 0-1-2-11-16-57-62-101-46-44-107-44-70 0-106 63-41-62-94-62h-6q-49 0-70 26-21 26-22 55 0 32 19 52 19 20 45 20 43 0 43-42 0-20-12-35-12-15-23-20-11-5-13-5l-3-1q0-1 6-4 6-3 16-7 10-4 19-3 36 0 62 45 9 16 23 68 14 52 28 108 14 56 16 66 5 27 5 39 0 28-15 40-15 12-34 12-40 0-75-32-35-32-49-82-2-9-5-10-3-1-16-2H58q-6 6-6 11z"/><path id="B" d="M94 250Q94 319 104 381T127 488T164 576T202 643T244 695T277 729T302 750H315H319Q333 750 333 741Q333 738 316 720T275 667T226 581T184 443T167 250T184 58T225 -81T274 -167T316 -220T333 -241Q333 -250 318 -250H315H302L274 -226Q180 -141 137 -14T94 250Z"/><path id="C" d="M117 59q0-33 25-33 37 0 63 105 6 20 10 21 2 1 10 1h4q9 0 12 0 3 0 5-2 2-2 2-7-1-6-3-16-2-10-11-38-9-28-20-47-11-19-31-37-20-18-46-17-36 0-67 22-31 22-32 74 0 12 1 17l65 258q63 255 63 263 0 3-1 5-1 2-4 4-3 2-5 2-2 0-8 1-6 1-8 1-2 0-9 1-7 1-10 0-10 0-13 0-3 0-8 1-5 1-6 3-1 2-1 6 0 2 2 14 5 19 11 21 6 2 72 6 15 1 34 2 19 1 30 3 11 2 11 1 12 0 12-8 0-11-73-300-73-289-75-303 0-2 0-8 0-6-1-10v-6z"/><path id="D" d="M84 237T84 250T98 270H679Q694 262 694 250T679 230H98Q84 237 84 250Z"/><path id="E" d="M213 578l-13-5q-14-5-40-10-26-5-58-7H83v46h19q47 2 87 15 40 13 56 24 16 11 28 22 2 3 12 3 9 0 17-6V361l1-300q7-7 12-9 5-2 24-4 19-2 62-2h26V0h-11q-21 3-159 3-136 0-157-3H88v46h26q22 0 38 0 16 0 25 1 9 1 16 3 7 2 8 2 1 0 6 5 5 5 6 4v517z"/><path id="F" d="M60 749l4 1q5 0 10 0h12l28-24q94-85 137-212 43-127 43-264 0-68-10-131-10-63-23-107-13-44-37-88-24-44-38-67-14-23-41-51-27-28-32-33-5-5-23-19-3-3-4-4H74q-8 0-11 0-3 0-5 3-2 3-3 9 1 1 11 13Q221-64 221 250q0 314-155 475-10 12-11 13 0 8 5 11z"/><path id="G" d="M184 600q0 24 19 42 19 18 44 19 18 0 30-12 12-12 13-30 0-23-20-42-20-19-44-20-15 0-28 10-13 10-14 33zM21 287q0 8 9 31 9 23 24 51 15 28 44 51 29 23 60 22 39 0 65-23 26-23 27-62 0-17-14-56-14-39-40-105-26-66-42-113-5-22-5-32 0-25 17-25 9 0 19 3 10 3 23 14 13 11 27 35 14 24 25 59 3 12 5 14 2 2 17 2 20 0 20-10 0-8-9-31-9-23-25-51-16-28-45-50-29-22-62-22-32 0-59 21-27 21-28 64 0 17 5 32 5 15 43 114 38 101 44 121 6 20 7 39 0 24-17 24h-2q-30 0-55-33-25-33-38-84-1-1-2-3-1-2-1-3 0-1-2-2-2-1-3-1-1 0-4 0-3 0-8 0H27q-6 6-6 9z"/></defs><g transform="scale(1 -1)"><use xlink:href="#A"/><g transform="matrix(.707 0 0 .707 605 530.4)"><use xlink:href="#B"/><use xlink:href="#C" x="389"/><use xlink:href="#D" x="687"/><use xlink:href="#E" x="1465"/><use xlink:href="#F" x="1965"/></g><use xlink:href="#G" transform="matrix(.707 0 0 .707 605 -293.8)"/></g></svg>
