<svg width="600" height="78" viewBox="-5, -5, 700 80"><path d="M352 22.1V3.7h8v18.4q0 13.157 2.314 40.004a1304.6 1304.6 0 0 0 .086.996l6.1-30h5l6.1 30q2.4-27.6 2.4-41V3.7h8v18.4q0 16.564-7.575 54.478a928.037 928.037 0 0 1-.125.622h-5.1L371 45.9l-6.2 31.3h-5.1a743.937 743.937 0 0 1-3.369-17.844q-2.836-16.196-3.815-27.158A115.36 115.36 0 0 1 352 22.1ZM160 77.2h-8V3.7h8v28.1a2.74 2.74 0 0 0 .202-.356 2.253 2.253 0 0 0 .098-.244q2.3-4 5.8-6a13.982 13.982 0 0 1 5.117-1.658 17.814 17.814 0 0 1 2.283-.142q4.2 0 7.3 1.8 3.5 2 5.8 6a23.784 23.784 0 0 1 2.496 6.466q.678 2.881.848 6.241A45.517 45.517 0 0 1 190 46.2v31h-8v-31a28.409 28.409 0 0 0-.323-4.416q-.371-2.352-1.166-4.299a15.163 15.163 0 0 0-.811-1.685q-1.5-2.7-3.9-4a9.134 9.134 0 0 0-3.647-1.143A11.333 11.333 0 0 0 171 30.6a10.363 10.363 0 0 0-2.774.359 8.793 8.793 0 0 0-2.026.841 9.755 9.755 0 0 0-2.66 2.24 13.032 13.032 0 0 0-1.24 1.76q-1.906 3.315-2.233 8.279A32.346 32.346 0 0 0 160 46.2v31Zm-58.3-11 7.5-2.4a10.388 10.388 0 0 0 .62 1.463 11.812 11.812 0 0 0 .18.337q1.3 2.3 3.7 3.6 2.439 1.394 6.016 1.573a21.609 21.609 0 0 0 1.084.027 21.315 21.315 0 0 0 3.222-.229q1.693-.259 3.092-.812a10.993 10.993 0 0 0 1.386-.659q1.9-1.1 2.8-2.7a6.09 6.09 0 0 0 .762-2.432 7.556 7.556 0 0 0 .038-.768q0-1.9-1-3.6a7.689 7.689 0 0 0-2.049-2.352 9.709 9.709 0 0 0-.951-.648 9.546 9.546 0 0 0-1.603-.724q-1.77-.63-4.46-1.03a47.839 47.839 0 0 0-1.937-.246 50.219 50.219 0 0 1-3.848-.581q-4.191-.813-6.652-2.219-3.6-2.1-5.6-5.6a15.529 15.529 0 0 1-2.098-7.726 18.283 18.283 0 0 1-.002-.274 15.21 15.21 0 0 1 .473-3.863A12.603 12.603 0 0 1 103.6 31.3q1.8-3.1 5.3-5.1 4.402-2.516 10.823-2.771a37.158 37.158 0 0 1 1.477-.029 30.063 30.063 0 0 1 5.118.412q2.905.502 5.288 1.616a17.313 17.313 0 0 1 1.294.672q3.8 2.2 6 6 .9 1.5 1.4 3.1l-7.5 2.4a10.388 10.388 0 0 0-.62-1.462 11.812 11.812 0 0 0-.18-.338q-1.3-2.3-3.7-3.6-2.439-1.394-6.016-1.573a21.609 21.609 0 0 0-1.084-.027 21.315 21.315 0 0 0-3.222.229q-1.693.259-3.092.812a10.993 10.993 0 0 0-1.386.659q-1.9 1.1-2.8 2.7a6.09 6.09 0 0 0-.762 2.432 7.556 7.556 0 0 0-.038.768q0 1.9 1 3.6a7.689 7.689 0 0 0 2.049 2.352 9.709 9.709 0 0 0 .951.648 9.546 9.546 0 0 0 1.603.724q1.77.63 4.46 1.03a47.839 47.839 0 0 0 1.937.246 62.198 62.198 0 0 1 .108.012q6.919.804 10.392 2.788 3.6 2.1 5.6 5.6a15.529 15.529 0 0 1 2.098 7.726 18.283 18.283 0 0 1 .002.274 15.21 15.21 0 0 1-.473 3.863A12.603 12.603 0 0 1 138.4 70.1q-1.8 3.1-5.3 5.1-4.402 2.516-10.823 2.771A37.158 37.158 0 0 1 120.8 78a30.063 30.063 0 0 1-5.118-.412q-2.905-.502-5.288-1.616a17.313 17.313 0 0 1-1.294-.672q-3.8-2.2-6-6-.9-1.5-1.4-3.1Zm150 0 7.5-2.4a10.388 10.388 0 0 0 .62 1.463 11.812 11.812 0 0 0 .18.337q1.3 2.3 3.7 3.6 2.439 1.394 6.016 1.573a21.609 21.609 0 0 0 1.084.027 21.315 21.315 0 0 0 3.222-.229q1.693-.259 3.092-.812a10.993 10.993 0 0 0 1.386-.659q1.9-1.1 2.8-2.7a6.09 6.09 0 0 0 .762-2.432 7.556 7.556 0 0 0 .038-.768q0-1.9-1-3.6a7.689 7.689 0 0 0-2.049-2.352 9.709 9.709 0 0 0-.951-.648 9.546 9.546 0 0 0-1.603-.724q-1.77-.63-4.46-1.03a47.839 47.839 0 0 0-1.937-.246 50.219 50.219 0 0 1-3.848-.581q-4.191-.813-6.652-2.219-3.6-2.1-5.6-5.6a15.529 15.529 0 0 1-2.098-7.726 18.283 18.283 0 0 1-.002-.274 15.21 15.21 0 0 1 .473-3.863A12.603 12.603 0 0 1 253.6 31.3q1.8-3.1 5.3-5.1 4.402-2.516 10.823-2.771a37.158 37.158 0 0 1 1.477-.029 30.063 30.063 0 0 1 5.118.412q2.905.502 5.288 1.616a17.313 17.313 0 0 1 1.294.672q3.8 2.2 6 6 .9 1.5 1.4 3.1l-7.5 2.4a10.388 10.388 0 0 0-.62-1.462 11.812 11.812 0 0 0-.18-.338q-1.3-2.3-3.7-3.6-2.439-1.394-6.016-1.573a21.609 21.609 0 0 0-1.084-.027 21.315 21.315 0 0 0-3.222.229q-1.693.259-3.092.812a10.993 10.993 0 0 0-1.386.659q-1.9 1.1-2.8 2.7a6.09 6.09 0 0 0-.762 2.432 7.556 7.556 0 0 0-.038.768q0 1.9 1 3.6a7.689 7.689 0 0 0 2.049 2.352 9.709 9.709 0 0 0 .951.648 9.546 9.546 0 0 0 1.603.724q1.77.63 4.46 1.03a47.839 47.839 0 0 0 1.937.246 62.198 62.198 0 0 1 .108.012q6.919.804 10.392 2.788 3.6 2.1 5.6 5.6a15.529 15.529 0 0 1 2.098 7.726 18.283 18.283 0 0 1 .002.274 15.21 15.21 0 0 1-.473 3.863A12.603 12.603 0 0 1 288.4 70.1q-1.8 3.1-5.3 5.1-4.402 2.516-10.823 2.771A37.158 37.158 0 0 1 270.8 78a30.063 30.063 0 0 1-5.118-.412q-2.905-.502-5.288-1.616a17.313 17.313 0 0 1-1.294-.672q-3.8-2.2-6-6-.9-1.5-1.4-3.1Zm250 0 7.5-2.4a10.388 10.388 0 0 0 .62 1.463 11.812 11.812 0 0 0 .18.337q1.3 2.3 3.7 3.6 2.439 1.394 6.016 1.573a21.609 21.609 0 0 0 1.084.027 21.315 21.315 0 0 0 3.222-.229q1.693-.259 3.092-.812a10.993 10.993 0 0 0 1.386-.659q1.9-1.1 2.8-2.7a6.09 6.09 0 0 0 .762-2.432 7.556 7.556 0 0 0 .038-.768q0-1.9-1-3.6a7.689 7.689 0 0 0-2.049-2.352 9.709 9.709 0 0 0-.951-.648 9.546 9.546 0 0 0-1.603-.724q-1.77-.63-4.46-1.03a47.839 47.839 0 0 0-1.937-.246 50.219 50.219 0 0 1-3.848-.581q-4.191-.813-6.652-2.219-3.6-2.1-5.6-5.6a15.529 15.529 0 0 1-2.098-7.726 18.283 18.283 0 0 1-.002-.274 15.21 15.21 0 0 1 .473-3.863A12.603 12.603 0 0 1 503.6 31.3q1.8-3.1 5.3-5.1 4.402-2.516 10.823-2.771a37.158 37.158 0 0 1 1.477-.029 30.063 30.063 0 0 1 5.118.412q2.905.502 5.288 1.616a17.313 17.313 0 0 1 1.294.672q3.8 2.2 6 6 .9 1.5 1.4 3.1l-7.5 2.4a10.388 10.388 0 0 0-.62-1.462 11.812 11.812 0 0 0-.18-.338q-1.3-2.3-3.7-3.6-2.439-1.394-6.016-1.573a21.609 21.609 0 0 0-1.084-.027 21.315 21.315 0 0 0-3.222.229q-1.693.259-3.092.812a10.993 10.993 0 0 0-1.386.659q-1.9 1.1-2.8 2.7a6.09 6.09 0 0 0-.762 2.432 7.556 7.556 0 0 0-.038.768q0 1.9 1 3.6a7.689 7.689 0 0 0 2.049 2.352 9.709 9.709 0 0 0 .951.648 9.546 9.546 0 0 0 1.603.724q1.77.63 4.46 1.03a47.839 47.839 0 0 0 1.937.246 62.198 62.198 0 0 1 .108.012q6.919.804 10.392 2.788 3.6 2.1 5.6 5.6a15.529 15.529 0 0 1 2.098 7.726 18.283 18.283 0 0 1 .002.274 15.21 15.21 0 0 1-.473 3.863A12.603 12.603 0 0 1 538.4 70.1q-1.8 3.1-5.3 5.1-4.402 2.516-10.823 2.771A37.158 37.158 0 0 1 520.8 78a30.063 30.063 0 0 1-5.118-.412q-2.905-.502-5.288-1.616a17.313 17.313 0 0 1-1.294-.672q-3.8-2.2-6-6-.9-1.5-1.4-3.1ZM612 31.4h-10.9v-7.2H612V3.7h8v20.5h16.1v7.2H620v26.4a24.889 24.889 0 0 0 .258 3.695q.299 1.986.943 3.627A12.789 12.789 0 0 0 622 66.8a9.204 9.204 0 0 0 1.245 1.715A7.108 7.108 0 0 0 625 69.9a6.248 6.248 0 0 0 2.264.803 8.238 8.238 0 0 0 1.286.097 7.846 7.846 0 0 0 1.801-.198 6.086 6.086 0 0 0 1.749-.702 11.793 11.793 0 0 0 1.075-.762 14.131 14.131 0 0 0 .525-.438q2.631-2.631 3.262-7.34A21.649 21.649 0 0 0 637.1 60l7.8 1.7a22.409 22.409 0 0 1-1.241 5.46 19.308 19.308 0 0 1-1.459 3.09 16.195 16.195 0 0 1-3.352 4.086A14.742 14.742 0 0 1 636.5 76a14.405 14.405 0 0 1-5.35 1.824 18.604 18.604 0 0 1-2.6.176 17.469 17.469 0 0 1-4.2-.484A13.951 13.951 0 0 1 620.6 76a15.451 15.451 0 0 1-5.418-5.241 18.34 18.34 0 0 1-.282-.459q-2.9-5-2.9-12.5V31.4ZM0 61.7l7.8-1.5q.3 3 1.8 5.5a10.229 10.229 0 0 0 2.025 2.587A9.186 9.186 0 0 0 13.3 69.5a9.971 9.971 0 0 0 3.517 1.173 12.829 12.829 0 0 0 1.833.127 12.05 12.05 0 0 0 2.506-.249A9.045 9.045 0 0 0 23.9 69.5a9.494 9.494 0 0 0 3.336-3.194 11.52 11.52 0 0 0 .364-.606q1.9-3.2 1.9-8V10.9H16V3.7h21.5v54a27.763 27.763 0 0 1-.536 5.586A20.565 20.565 0 0 1 34.7 69.4q-2.3 4-6.2 6.2a17.996 17.996 0 0 1-6.156 2.116A23.793 23.793 0 0 1 18.6 78a22.793 22.793 0 0 1-5.014-.527A17.555 17.555 0 0 1 8.7 75.6q-3.9-2.2-6.2-6.2-2-3.5-2.5-7.7Zm460 15.5h-8V3.7h8v28.1a2.74 2.74 0 0 0 .202-.356 2.253 2.253 0 0 0 .098-.244q2.3-4 5.8-6a13.982 13.982 0 0 1 5.117-1.658 17.814 17.814 0 0 1 2.283-.142q4.5 0 7.9 2a15.875 15.875 0 0 1 4.988 4.502A19.73 19.73 0 0 1 487.5 31.6a23.719 23.719 0 0 1 2.462 6.493q.838 3.673.838 8.107v9a38.847 38.847 0 0 1-.464 6.178q-.556 3.448-1.778 6.29A21.382 21.382 0 0 1 487.5 69.8a18.022 18.022 0 0 1-3.014 3.886A15.284 15.284 0 0 1 481.4 76a14.424 14.424 0 0 1-5.456 1.842A18.363 18.363 0 0 1 473.5 78q-4.2 0-7.4-1.8-3.5-2-5.8-6a2.74 2.74 0 0 1-.202-.356A2.253 2.253 0 0 1 460 69.6v7.6Zm-58.8-22v-9q0-7.344 2.63-12.55a20.192 20.192 0 0 1 .57-1.05q2.5-4.4 6.7-6.8a17.996 17.996 0 0 1 6.156-2.116A23.793 23.793 0 0 1 421 23.4a22.793 22.793 0 0 1 5.014.527A17.555 17.555 0 0 1 430.9 25.8a18.497 18.497 0 0 1 6.199 5.993 22.052 22.052 0 0 1 .501.807q3.2 5.5 3.2 13.6v8.1h-31.6v.9a24.26 24.26 0 0 0 .351 4.241q.441 2.48 1.434 4.504a14.211 14.211 0 0 0 .515.955q1.7 2.9 4.2 4.4a10.321 10.321 0 0 0 3.516 1.289 14.016 14.016 0 0 0 2.484.211q3.5 0 6-1.5a11.383 11.383 0 0 0 3.931-3.654 13.821 13.821 0 0 0 .469-.746 12.108 12.108 0 0 0 1.294-2.86 14.092 14.092 0 0 0 .206-.74l7.3 2.9q-.7 2.3-1.9 4.3-2.6 4.4-6.8 6.9a18.337 18.337 0 0 1-6.164 2.234A24.661 24.661 0 0 1 421.7 78a24.1 24.1 0 0 1-5.012-.498A18.09 18.09 0 0 1 411.2 75.4q-4.2-2.5-6.8-6.8a22.775 22.775 0 0 1-2.587-6.947q-.613-2.997-.613-6.453Zm250 0v-9q0-7.344 2.63-12.55a20.192 20.192 0 0 1 .57-1.05q2.5-4.4 6.7-6.8a17.996 17.996 0 0 1 6.156-2.116A23.793 23.793 0 0 1 671 23.4a22.793 22.793 0 0 1 5.014.527A17.555 17.555 0 0 1 680.9 25.8a18.497 18.497 0 0 1 6.199 5.993 22.052 22.052 0 0 1 .501.807q3.2 5.5 3.2 13.6v8.1h-31.6v.9a24.26 24.26 0 0 0 .351 4.241q.441 2.48 1.434 4.504a14.211 14.211 0 0 0 .515.955q1.7 2.9 4.2 4.4a10.321 10.321 0 0 0 3.516 1.289 14.016 14.016 0 0 0 2.484.211q3.5 0 6-1.5a11.383 11.383 0 0 0 3.931-3.654 13.821 13.821 0 0 0 .469-.746 12.108 12.108 0 0 0 1.294-2.86 14.092 14.092 0 0 0 .206-.74l7.3 2.9q-.7 2.3-1.9 4.3-2.6 4.4-6.8 6.9a18.337 18.337 0 0 1-6.164 2.234A24.661 24.661 0 0 1 671.7 78a24.1 24.1 0 0 1-5.012-.498A18.09 18.09 0 0 1 661.2 75.4q-4.2-2.5-6.8-6.8a22.775 22.775 0 0 1-2.587-6.947q-.613-2.997-.613-6.453Zm-62.7 22h-35V70h14.2V31.4h-12.8v-7.2h20.8V70h12.8v7.2Zm-537.3-22v-9q0-7.344 2.63-12.55a20.192 20.192 0 0 1 .57-1.05q2.5-4.4 6.7-6.8a17.996 17.996 0 0 1 6.156-2.116A23.793 23.793 0 0 1 71 23.4a22.793 22.793 0 0 1 5.014.527A17.555 17.555 0 0 1 80.9 25.8a18.497 18.497 0 0 1 6.199 5.993 22.052 22.052 0 0 1 .501.807q3.2 5.5 3.2 13.6v9q0 7.344-2.63 12.55a20.192 20.192 0 0 1-.57 1.05q-2.5 4.4-6.7 6.8a17.996 17.996 0 0 1-6.156 2.116A23.793 23.793 0 0 1 71 78a22.793 22.793 0 0 1-5.014-.527A17.555 17.555 0 0 1 61.1 75.6a18.497 18.497 0 0 1-6.199-5.993 22.052 22.052 0 0 1-.501-.807q-3.2-5.5-3.2-13.6Zm8-9v9a26.576 26.576 0 0 0 .31 4.183q.535 3.349 1.99 5.817a12.504 12.504 0 0 0 2.085 2.739A10.79 10.79 0 0 0 65.6 69.5a9.923 9.923 0 0 0 3.363 1.146A13.028 13.028 0 0 0 71 70.8a12.492 12.492 0 0 0 2.73-.286A9.687 9.687 0 0 0 76.4 69.5a9.965 9.965 0 0 0 3.071-2.71A12.967 12.967 0 0 0 80.5 65.2q2.075-3.609 2.278-8.847A29.818 29.818 0 0 0 82.8 55.2v-9a26.576 26.576 0 0 0-.31-4.183q-.535-3.349-1.99-5.817a12.504 12.504 0 0 0-2.085-2.739A10.79 10.79 0 0 0 76.4 31.9a9.923 9.923 0 0 0-3.363-1.146A13.028 13.028 0 0 0 71 30.6a12.492 12.492 0 0 0-2.73.286A9.687 9.687 0 0 0 65.6 31.9a9.965 9.965 0 0 0-3.071 2.71A12.967 12.967 0 0 0 61.5 36.2q-2.075 3.609-2.278 8.847A29.818 29.818 0 0 0 59.2 46.2Zm400.8 0v9a28.409 28.409 0 0 0 .323 4.416q.371 2.352 1.166 4.299a15.163 15.163 0 0 0 .811 1.685q1.5 2.7 3.9 4a9.042 9.042 0 0 0 3.218 1.083 11.691 11.691 0 0 0 1.682.117 11.778 11.778 0 0 0 2.908-.346 9.681 9.681 0 0 0 2.392-.954 9.965 9.965 0 0 0 3.071-2.71 12.967 12.967 0 0 0 1.029-1.59q2.075-3.609 2.278-8.847a29.818 29.818 0 0 0 .022-1.153v-9a26.576 26.576 0 0 0-.31-4.183q-.535-3.349-1.99-5.817a12.504 12.504 0 0 0-2.085-2.739A10.79 10.79 0 0 0 476.4 31.9a10.033 10.033 0 0 0-3.756-1.208 12.674 12.674 0 0 0-1.544-.092 11.037 11.037 0 0 0-2.587.291 8.769 8.769 0 0 0-2.313.909 9.755 9.755 0 0 0-2.66 2.24 13.032 13.032 0 0 0-1.24 1.76q-1.906 3.315-2.233 8.279A32.346 32.346 0 0 0 460 46.2ZM216.6 0h8.8q0 16.2-.6 32.2h-7.6q-.6-16.1-.6-32.2Zm192.6 46.2v.9h23.6v-.9a26.576 26.576 0 0 0-.31-4.183q-.535-3.349-1.99-5.817a12.504 12.504 0 0 0-2.085-2.739A10.79 10.79 0 0 0 426.4 31.9a9.923 9.923 0 0 0-3.363-1.146A13.028 13.028 0 0 0 421 30.6a12.492 12.492 0 0 0-2.73.286 9.687 9.687 0 0 0-2.67 1.014 9.965 9.965 0 0 0-3.071 2.71 12.967 12.967 0 0 0-1.029 1.59q-2.075 3.609-2.278 8.847a29.818 29.818 0 0 0-.022 1.153Zm250 0v.9h23.6v-.9a26.576 26.576 0 0 0-.31-4.183q-.535-3.349-1.99-5.817a12.504 12.504 0 0 0-2.085-2.739A10.79 10.79 0 0 0 676.4 31.9a9.923 9.923 0 0 0-3.363-1.146A13.028 13.028 0 0 0 671 30.6a12.492 12.492 0 0 0-2.73.286 9.687 9.687 0 0 0-2.67 1.014 9.965 9.965 0 0 0-3.071 2.71 12.967 12.967 0 0 0-1.029 1.59q-2.075 3.609-2.278 8.847a29.818 29.818 0 0 0-.022 1.153ZM564.8 8.7a9.934 9.934 0 0 0 0 .055q.011 1.964.8 3.345.7 1.3 2 2a5.474 5.474 0 0 0 1.778.731A7.4 7.4 0 0 0 571 15q2 0 3.4-.9 1.3-.7 2-2a5.252 5.252 0 0 0 .029-.051q.44-.79.629-1.768A8.331 8.331 0 0 0 577.2 8.7a9.934 9.934 0 0 0 0-.055q-.011-1.964-.8-3.345-.7-1.3-2-2-1.326-.853-3.191-.853a8.357 8.357 0 0 0-.209.003q-.875.022-1.635.187a6.183 6.183 0 0 0-1.765.663q-1.3.7-2 2a5.252 5.252 0 0 0-.029.051q-.44.79-.629 1.768A8.331 8.331 0 0 0 564.8 8.7Z"></path></svg>
